<svg width="1275" height="88" viewBox="0 0 1275 88" fill="none" xmlns="http://www.w3.org/2000/svg">
<mask id="path-1-outside-1_2204_195" maskUnits="userSpaceOnUse" x="20" y="27" width="135" height="34" fill="black">
<rect fill="white" x="20" y="27" width="135" height="34"/>
<path d="M21.44 39.68C21.6 37.36 22.36 35.36 23.72 33.68C25.08 31.9733 26.88 30.6667 29.12 29.76C31.3867 28.8267 33.9467 28.36 36.8 28.36C39.52 28.36 41.8933 28.7733 43.92 29.6C45.9467 30.4267 47.5333 31.5867 48.68 33.08C49.8267 34.5733 50.4 36.2933 50.4 38.24C50.4 39.76 50 41.1733 49.2 42.48C48.4 43.76 47.1333 45.04 45.4 46.32C43.6667 47.6 41.3867 48.96 38.56 50.4L29.88 54.96L29.48 53H51.24V59H21.96V53.72L34.84 46.32C36.8933 45.1467 38.4933 44.1467 39.64 43.32C40.8133 42.4667 41.64 41.68 42.12 40.96C42.6 40.24 42.84 39.4667 42.84 38.64C42.84 37.7867 42.6 37.0267 42.12 36.36C41.6667 35.6933 40.9733 35.1733 40.04 34.8C39.1067 34.4267 37.9333 34.24 36.52 34.24C34.84 34.24 33.4533 34.4933 32.36 35C31.2667 35.48 30.4533 36.1333 29.92 36.96C29.3867 37.7867 29.0667 38.6933 28.96 39.68H21.44ZM71.2897 59.64C67.903 59.64 64.9697 58.9867 62.4897 57.68C60.0097 56.3733 58.0897 54.56 56.7297 52.24C55.3697 49.8933 54.6897 47.1467 54.6897 44C54.6897 40.88 55.3697 38.1467 56.7297 35.8C58.0897 33.4533 60.0097 31.6267 62.4897 30.32C64.9697 29.0133 67.903 28.36 71.2897 28.36C74.6497 28.36 77.5697 29.0133 80.0497 30.32C82.5297 31.6267 84.4497 33.4533 85.8097 35.8C87.1697 38.12 87.8497 40.8533 87.8497 44C87.8497 47.12 87.1697 49.8533 85.8097 52.2C84.4497 54.5467 82.5297 56.3733 80.0497 57.68C77.5697 58.9867 74.6497 59.64 71.2897 59.64ZM71.2897 53.48C74.143 53.48 76.3564 52.6533 77.9297 51C79.5297 49.3467 80.3297 47.0133 80.3297 44C80.3297 40.9867 79.5297 38.6533 77.9297 37C76.3564 35.3467 74.143 34.52 71.2897 34.52C68.4364 34.52 66.2097 35.3467 64.6097 37C63.0097 38.6533 62.2097 40.9867 62.2097 44C62.2097 47.0133 63.0097 49.3467 64.6097 51C66.2097 52.6533 68.4364 53.48 71.2897 53.48ZM91.0494 39.68C91.2094 37.36 91.9694 35.36 93.3294 33.68C94.6894 31.9733 96.4894 30.6667 98.7294 29.76C100.996 28.8267 103.556 28.36 106.409 28.36C109.129 28.36 111.503 28.7733 113.529 29.6C115.556 30.4267 117.143 31.5867 118.289 33.08C119.436 34.5733 120.009 36.2933 120.009 38.24C120.009 39.76 119.609 41.1733 118.809 42.48C118.009 43.76 116.743 45.04 115.009 46.32C113.276 47.6 110.996 48.96 108.169 50.4L99.4894 54.96L99.0894 53H120.849V59H91.5694V53.72L104.449 46.32C106.503 45.1467 108.103 44.1467 109.249 43.32C110.423 42.4667 111.249 41.68 111.729 40.96C112.209 40.24 112.449 39.4667 112.449 38.64C112.449 37.7867 112.209 37.0267 111.729 36.36C111.276 35.6933 110.583 35.1733 109.649 34.8C108.716 34.4267 107.543 34.24 106.129 34.24C104.449 34.24 103.063 34.4933 101.969 35C100.876 35.48 100.063 36.1333 99.5294 36.96C98.996 37.7867 98.676 38.6933 98.5694 39.68H91.0494ZM124.539 38.6C124.672 36.7067 125.339 34.9867 126.539 33.44C127.739 31.8933 129.446 30.6667 131.659 29.76C133.899 28.8267 136.592 28.36 139.739 28.36C142.486 28.36 144.859 28.72 146.859 29.44C148.886 30.1333 150.459 31.1067 151.579 32.36C152.699 33.5867 153.259 35.04 153.259 36.72C153.259 38.08 152.846 39.32 152.019 40.44C151.219 41.5333 149.952 42.4133 148.219 43.08C146.486 43.72 144.272 44.0267 141.579 44V43.2C144.139 43.0667 146.339 43.2533 148.179 43.76C150.019 44.2667 151.432 45.0667 152.419 46.16C153.406 47.2533 153.899 48.6267 153.899 50.28C153.899 52.0933 153.326 53.7067 152.179 55.12C151.032 56.5067 149.352 57.6133 147.139 58.44C144.952 59.24 142.286 59.64 139.139 59.64C136.072 59.64 133.392 59.2133 131.099 58.36C128.832 57.48 127.059 56.2667 125.779 54.72C124.526 53.1467 123.846 51.3067 123.739 49.2H131.259C131.472 50.6667 132.219 51.8 133.499 52.6C134.806 53.3733 136.686 53.76 139.139 53.76C141.459 53.76 143.219 53.4133 144.419 52.72C145.646 52 146.259 51 146.259 49.72C146.259 48.9733 146.059 48.36 145.659 47.88C145.259 47.3733 144.579 46.9867 143.619 46.72C142.659 46.4533 141.326 46.32 139.619 46.32H134.419V41.16H139.619C141.832 41.16 143.392 40.8533 144.299 40.24C145.206 39.6 145.659 38.7733 145.659 37.76C145.659 36.64 145.126 35.7733 144.059 35.16C143.019 34.5467 141.446 34.24 139.339 34.24C137.152 34.24 135.446 34.6133 134.219 35.36C133.019 36.1067 132.299 37.1867 132.059 38.6H124.539Z"/>
</mask>
<path d="M21.44 39.68L20.4424 39.6112L20.3687 40.68H21.44V39.68ZM23.72 33.68L24.4973 34.3092L24.5021 34.3032L23.72 33.68ZM29.12 29.76L29.4952 30.687L29.5008 30.6847L29.12 29.76ZM43.92 29.6L43.5423 30.5259L43.5423 30.5259L43.92 29.6ZM48.68 33.08L47.8868 33.689L47.8869 33.689L48.68 33.08ZM49.2 42.48L50.048 43.01L50.0529 43.0022L49.2 42.48ZM45.4 46.32L45.994 47.1244L45.994 47.1244L45.4 46.32ZM38.56 50.4L38.106 49.5089L38.0949 49.5147L38.56 50.4ZM29.88 54.96L28.9002 55.16L29.1664 56.4645L30.3451 55.8453L29.88 54.96ZM29.48 53V52H28.2553L28.5002 53.2L29.48 53ZM51.24 53H52.24V52H51.24V53ZM51.24 59V60H52.24V59H51.24ZM21.96 59H20.96V60H21.96V59ZM21.96 53.72L21.4618 52.8529L20.96 53.1412V53.72H21.96ZM34.84 46.32L34.3439 45.4518L34.3418 45.4529L34.84 46.32ZM39.64 43.32L40.2248 44.1312L40.2282 44.1287L39.64 43.32ZM42.12 40.96L41.288 40.4053L41.288 40.4053L42.12 40.96ZM42.12 36.36L41.2931 36.9223L41.3006 36.9334L41.3085 36.9443L42.12 36.36ZM40.04 34.8L40.4114 33.8715L40.4114 33.8715L40.04 34.8ZM32.36 35L32.762 35.9156L32.7713 35.9116L32.7805 35.9073L32.36 35ZM29.92 36.96L30.7603 37.5021L30.7603 37.5021L29.92 36.96ZM28.96 39.68V40.68H29.8577L29.9542 39.7875L28.96 39.68ZM22.4376 39.7488C22.5846 37.6174 23.2765 35.8172 24.4972 34.3092L22.9428 33.0508C21.4435 34.9028 20.6154 37.1026 20.4424 39.6112L22.4376 39.7488ZM24.5021 34.3032C25.7436 32.7451 27.3972 31.5361 29.4952 30.6869L28.7448 28.8331C26.3628 29.7972 24.4164 31.2015 22.9379 33.0568L24.5021 34.3032ZM29.5008 30.6847C31.6285 29.8085 34.0561 29.36 36.8 29.36V27.36C33.8372 27.36 31.1448 27.8448 28.7393 28.8353L29.5008 30.6847ZM36.8 29.36C39.4209 29.36 41.6608 29.7585 43.5423 30.5259L44.2977 28.6741C42.1259 27.7882 39.6191 27.36 36.8 27.36V29.36ZM43.5423 30.5259C45.4318 31.2967 46.8646 32.3577 47.8868 33.689L49.4732 32.471C48.2021 30.8156 46.4615 29.5567 44.2977 28.6741L43.5423 30.5259ZM47.8869 33.689C48.8946 35.0014 49.4 36.5055 49.4 38.24H51.4C51.4 36.0811 50.7588 34.1453 49.4732 32.471L47.8869 33.689ZM49.4 38.24C49.4 39.5742 49.0517 40.807 48.3471 41.9578L50.0529 43.0022C50.9483 41.5396 51.4 39.9458 51.4 38.24H49.4ZM48.352 41.95C47.6406 43.0882 46.4779 44.2809 44.806 45.5156L45.994 47.1244C47.7887 45.7991 49.1594 44.4318 50.048 43.01L48.352 41.95ZM44.806 45.5156C43.1322 46.7515 40.9043 48.0834 38.1061 49.509L39.0139 51.291C41.869 49.8366 44.2011 48.4485 45.994 47.1244L44.806 45.5156ZM38.0949 49.5147L29.4149 54.0747L30.3451 55.8453L39.0251 51.2853L38.0949 49.5147ZM30.8598 54.76L30.4598 52.8L28.5002 53.2L28.9002 55.16L30.8598 54.76ZM29.48 54H51.24V52H29.48V54ZM50.24 53V59H52.24V53H50.24ZM51.24 58H21.96V60H51.24V58ZM22.96 59V53.72H20.96V59H22.96ZM22.4582 54.5871L35.3382 47.1871L34.3418 45.4529L21.4618 52.8529L22.4582 54.5871ZM35.3361 47.1882C37.4027 46.0074 39.037 44.9875 40.2248 44.1312L39.0552 42.5088C37.9496 43.3058 36.384 44.286 34.3439 45.4518L35.3361 47.1882ZM40.2282 44.1287C41.4415 43.2463 42.3768 42.3776 42.9521 41.5147L41.288 40.4053C40.9032 40.9824 40.1852 41.687 39.0518 42.5113L40.2282 44.1287ZM42.9521 41.5147C43.5362 40.6385 43.84 39.6736 43.84 38.64H41.84C41.84 39.2597 41.6638 39.8415 41.288 40.4053L42.9521 41.5147ZM43.84 38.64C43.84 37.5856 43.539 36.6195 42.9315 35.7757L41.3085 36.9443C41.661 37.4339 41.84 37.9877 41.84 38.64H43.84ZM42.9469 35.7977C42.3567 34.9298 41.4838 34.3005 40.4114 33.8715L39.6686 35.7285C40.4628 36.0462 40.9766 36.4569 41.2931 36.9223L42.9469 35.7977ZM40.4114 33.8715C39.3224 33.4359 38.0127 33.24 36.52 33.24V35.24C37.8539 35.24 38.8909 35.4174 39.6686 35.7285L40.4114 33.8715ZM36.52 33.24C34.7484 33.24 33.2059 33.5059 31.9395 34.0927L32.7805 35.9073C33.7008 35.4808 34.9316 35.24 36.52 35.24V33.24ZM31.958 34.0844C30.7239 34.6262 29.7402 35.3941 29.0797 36.4179L30.7603 37.5021C31.1665 36.8726 31.8094 36.3338 32.762 35.9156L31.958 34.0844ZM29.0797 36.4179C28.4611 37.3766 28.0891 38.4324 27.9658 39.5725L29.9542 39.7875C30.0443 38.9543 30.3122 38.1967 30.7603 37.5021L29.0797 36.4179ZM28.96 38.68H21.44V40.68H28.96V38.68ZM62.4897 57.68L62.0235 58.5647L62.0235 58.5647L62.4897 57.68ZM56.7297 52.24L55.8645 52.7414L55.867 52.7457L56.7297 52.24ZM56.7297 35.8L55.8645 35.2986L55.8645 35.2986L56.7297 35.8ZM62.4897 30.32L62.9558 31.2047L62.9558 31.2047L62.4897 30.32ZM80.0497 30.32L79.5836 31.2047L79.5836 31.2047L80.0497 30.32ZM85.8097 35.8L84.9445 36.3014L84.947 36.3057L85.8097 35.8ZM85.8097 52.2L86.6749 52.7014L86.6749 52.7014L85.8097 52.2ZM80.0497 57.68L80.5158 58.5647L80.0497 57.68ZM77.9297 51L77.2111 50.3046L77.2053 50.3106L77.9297 51ZM77.9297 37L77.2052 37.6894L77.2111 37.6954L77.9297 37ZM64.6097 37L65.3283 37.6954L65.3283 37.6954L64.6097 37ZM64.6097 51L63.8911 51.6954L63.8911 51.6954L64.6097 51ZM71.2897 58.64C68.0319 58.64 65.2651 58.012 62.9558 56.7953L62.0235 58.5647C64.6742 59.9613 67.7741 60.64 71.2897 60.64V58.64ZM62.9558 56.7953C60.6334 55.5717 58.854 53.8865 57.5924 51.7343L55.867 52.7457C57.3254 55.2335 59.386 57.175 62.0235 58.5647L62.9558 56.7953ZM57.5949 51.7386C56.3365 49.5672 55.6897 46.9991 55.6897 44H53.6897C53.6897 47.2942 54.4029 50.2195 55.8645 52.7414L57.5949 51.7386ZM55.6897 44C55.6897 41.0292 56.3357 38.4741 57.5949 36.3014L55.8645 35.2986C54.4036 37.8193 53.6897 40.7308 53.6897 44H55.6897ZM57.5949 36.3014C58.8573 34.1232 60.6364 32.4268 62.9558 31.2047L62.0235 29.4353C59.383 30.8265 57.3221 32.7835 55.8645 35.2986L57.5949 36.3014ZM62.9558 31.2047C65.2651 29.988 68.0319 29.36 71.2897 29.36V27.36C67.7741 27.36 64.6742 28.0387 62.0235 29.4353L62.9558 31.2047ZM71.2897 29.36C74.5193 29.36 77.2732 29.9874 79.5836 31.2047L80.5158 29.4353C77.8662 28.0392 74.7801 27.36 71.2897 27.36V29.36ZM79.5836 31.2047C81.903 32.4268 83.6821 34.1232 84.9445 36.3014L86.6749 35.2986C85.2173 32.7835 83.1564 30.8265 80.5158 29.4353L79.5836 31.2047ZM84.947 36.3057C86.2028 38.448 86.8497 41.0006 86.8497 44H88.8497C88.8497 40.7061 88.1366 37.792 86.6724 35.2943L84.947 36.3057ZM86.8497 44C86.8497 46.9708 86.2036 49.5259 84.9445 51.6986L86.6749 52.7014C88.1357 50.1807 88.8497 47.2692 88.8497 44H86.8497ZM84.9445 51.6986C83.6821 53.8768 81.903 55.5732 79.5836 56.7953L80.5158 58.5647C83.1564 57.1735 85.2173 55.2165 86.6749 52.7014L84.9445 51.6986ZM79.5836 56.7953C77.2732 58.0126 74.5193 58.64 71.2897 58.64V60.64C74.7801 60.64 77.8662 59.9608 80.5158 58.5647L79.5836 56.7953ZM71.2897 54.48C74.3439 54.48 76.847 53.5883 78.6541 51.6894L77.2053 50.3106C75.8657 51.7183 73.9421 52.48 71.2897 52.48V54.48ZM78.6483 51.6954C80.4793 49.8033 81.3297 47.1897 81.3297 44H79.3297C79.3297 46.8369 78.58 48.89 77.2111 50.3046L78.6483 51.6954ZM81.3297 44C81.3297 40.8103 80.4793 38.1967 78.6483 36.3046L77.2111 37.6954C78.58 39.11 79.3297 41.1631 79.3297 44H81.3297ZM78.6541 36.3106C76.847 34.4117 74.3439 33.52 71.2897 33.52V35.52C73.9421 35.52 75.8657 36.2817 77.2053 37.6894L78.6541 36.3106ZM71.2897 33.52C68.2347 33.52 65.7227 34.4119 63.8911 36.3046L65.3283 37.6954C66.6966 36.2815 68.638 35.52 71.2897 35.52V33.52ZM63.8911 36.3046C62.06 38.1967 61.2097 40.8103 61.2097 44H63.2097C63.2097 41.1631 63.9593 39.11 65.3283 37.6954L63.8911 36.3046ZM61.2097 44C61.2097 47.1897 62.06 49.8033 63.8911 51.6954L65.3283 50.3046C63.9593 48.89 63.2097 46.8369 63.2097 44H61.2097ZM63.8911 51.6954C65.7227 53.5881 68.2347 54.48 71.2897 54.48V52.48C68.638 52.48 66.6966 51.7185 65.3283 50.3046L63.8911 51.6954ZM91.0494 39.68L90.0517 39.6112L89.978 40.68H91.0494V39.68ZM93.3294 33.68L94.1066 34.3092L94.1114 34.3032L93.3294 33.68ZM98.7294 29.76L99.1046 30.687L99.1101 30.6847L98.7294 29.76ZM113.529 29.6L113.152 30.5259L113.152 30.5259L113.529 29.6ZM118.289 33.08L117.496 33.689L117.496 33.689L118.289 33.08ZM118.809 42.48L119.657 43.01L119.662 43.0022L118.809 42.48ZM115.009 46.32L115.603 47.1244L115.603 47.1244L115.009 46.32ZM108.169 50.4L107.715 49.5089L107.704 49.5147L108.169 50.4ZM99.4894 54.96L98.5096 55.16L98.7758 56.4645L99.9544 55.8453L99.4894 54.96ZM99.0894 53V52H97.8647L98.1096 53.2L99.0894 53ZM120.849 53H121.849V52H120.849V53ZM120.849 59V60H121.849V59H120.849ZM91.5694 59H90.5694V60H91.5694V59ZM91.5694 53.72L91.0712 52.8529L90.5694 53.1412V53.72H91.5694ZM104.449 46.32L103.953 45.4518L103.951 45.4529L104.449 46.32ZM109.249 43.32L109.834 44.1312L109.838 44.1287L109.249 43.32ZM111.729 40.96L110.897 40.4053L110.897 40.4053L111.729 40.96ZM111.729 36.36L110.902 36.9223L110.91 36.9334L110.918 36.9443L111.729 36.36ZM109.649 34.8L110.021 33.8715L110.021 33.8715L109.649 34.8ZM101.969 35L102.371 35.9156L102.381 35.9116L102.39 35.9073L101.969 35ZM99.5294 36.96L100.37 37.5021L100.37 37.5021L99.5294 36.96ZM98.5694 39.68V40.68H99.4671L99.5636 39.7875L98.5694 39.68ZM92.047 39.7488C92.194 37.6174 92.8859 35.8172 94.1066 34.3092L92.5521 33.0508C91.0529 34.9028 90.2248 37.1026 90.0517 39.6112L92.047 39.7488ZM94.1114 34.3032C95.353 32.7451 97.0065 31.5361 99.1046 30.6869L98.3542 28.8331C95.9722 29.7972 94.0257 31.2015 92.5473 33.0568L94.1114 34.3032ZM99.1101 30.6847C101.238 29.8085 103.666 29.36 106.409 29.36V27.36C103.447 27.36 100.754 27.8448 98.3486 28.8353L99.1101 30.6847ZM106.409 29.36C109.03 29.36 111.27 29.7585 113.152 30.5259L113.907 28.6741C111.735 27.7882 109.228 27.36 106.409 27.36V29.36ZM113.152 30.5259C115.041 31.2967 116.474 32.3577 117.496 33.689L119.083 32.471C117.811 30.8156 116.071 29.5567 113.907 28.6741L113.152 30.5259ZM117.496 33.689C118.504 35.0014 119.009 36.5055 119.009 38.24H121.009C121.009 36.0811 120.368 34.1453 119.083 32.471L117.496 33.689ZM119.009 38.24C119.009 39.5742 118.661 40.807 117.957 41.9578L119.662 43.0022C120.558 41.5396 121.009 39.9458 121.009 38.24H119.009ZM117.961 41.95C117.25 43.0882 116.087 44.2809 114.415 45.5156L115.603 47.1244C117.398 45.7991 118.769 44.4318 119.657 43.01L117.961 41.95ZM114.415 45.5156C112.742 46.7515 110.514 48.0834 107.715 49.509L108.623 51.291C111.478 49.8366 113.81 48.4485 115.603 47.1244L114.415 45.5156ZM107.704 49.5147L99.0243 54.0747L99.9544 55.8453L108.634 51.2853L107.704 49.5147ZM100.469 54.76L100.069 52.8L98.1096 53.2L98.5096 55.16L100.469 54.76ZM99.0894 54H120.849V52H99.0894V54ZM119.849 53V59H121.849V53H119.849ZM120.849 58H91.5694V60H120.849V58ZM92.5694 59V53.72H90.5694V59H92.5694ZM92.0675 54.5871L104.948 47.1871L103.951 45.4529L91.0712 52.8529L92.0675 54.5871ZM104.946 47.1882C107.012 46.0074 108.646 44.9875 109.834 44.1312L108.665 42.5088C107.559 43.3058 105.993 44.286 103.953 45.4518L104.946 47.1882ZM109.838 44.1287C111.051 43.2463 111.986 42.3776 112.561 41.5147L110.897 40.4053C110.513 40.9824 109.795 41.687 108.661 42.5113L109.838 44.1287ZM112.561 41.5147C113.146 40.6385 113.449 39.6736 113.449 38.64H111.449C111.449 39.2597 111.273 39.8415 110.897 40.4053L112.561 41.5147ZM113.449 38.64C113.449 37.5856 113.148 36.6195 112.541 35.7757L110.918 36.9443C111.27 37.4339 111.449 37.9877 111.449 38.64H113.449ZM112.556 35.7977C111.966 34.9298 111.093 34.3005 110.021 33.8715L109.278 35.7285C110.072 36.0462 110.586 36.4569 110.902 36.9223L112.556 35.7977ZM110.021 33.8715C108.932 33.4359 107.622 33.24 106.129 33.24V35.24C107.463 35.24 108.5 35.4174 109.278 35.7285L110.021 33.8715ZM106.129 33.24C104.358 33.24 102.815 33.5059 101.549 34.0927L102.39 35.9073C103.31 35.4808 104.541 35.24 106.129 35.24V33.24ZM101.567 34.0844C100.333 34.6262 99.3496 35.3941 98.6891 36.4179L100.37 37.5021C100.776 36.8726 101.419 36.3338 102.371 35.9156L101.567 34.0844ZM98.6891 36.4179C98.0705 37.3766 97.6984 38.4324 97.5752 39.5725L99.5636 39.7875C99.6537 38.9543 99.9216 38.1967 100.37 37.5021L98.6891 36.4179ZM98.5694 38.68H91.0494V40.68H98.5694V38.68ZM124.539 38.6L123.542 38.5297L123.466 39.6H124.539V38.6ZM126.539 33.44L125.749 32.827L125.749 32.827L126.539 33.44ZM131.659 29.76L132.038 30.6854L132.044 30.6831L131.659 29.76ZM146.859 29.44L146.52 30.3809L146.528 30.3836L146.535 30.3862L146.859 29.44ZM151.579 32.36L150.833 33.0264L150.841 33.0343L151.579 32.36ZM152.019 40.44L151.214 39.8461L151.212 39.8495L152.019 40.44ZM148.219 43.08L148.565 44.0182L148.578 44.0133L148.219 43.08ZM141.579 44H140.579V44.9901L141.569 44.9999L141.579 44ZM141.579 43.2L141.527 42.2014L140.579 42.2507V43.2H141.579ZM152.179 55.12L152.95 55.7573L152.956 55.75L152.179 55.12ZM147.139 58.44L147.483 59.3791L147.489 59.3768L147.139 58.44ZM131.099 58.36L130.737 59.2923L130.75 59.2972L131.099 58.36ZM125.779 54.72L124.997 55.3431L125.003 55.3504L125.009 55.3576L125.779 54.72ZM123.739 49.2V48.2H122.687L122.74 49.2506L123.739 49.2ZM131.259 49.2L132.249 49.0561L132.124 48.2H131.259V49.2ZM133.499 52.6L132.969 53.448L132.979 53.4544L132.99 53.4606L133.499 52.6ZM144.419 52.72L144.919 53.5859L144.925 53.5824L144.419 52.72ZM145.659 47.88L144.874 48.4996L144.882 48.51L144.891 48.5202L145.659 47.88ZM143.619 46.72L143.351 47.6835L143.351 47.6835L143.619 46.72ZM134.419 46.32H133.419V47.32H134.419V46.32ZM134.419 41.16V40.16H133.419V41.16H134.419ZM144.299 40.24L144.859 41.0683L144.868 41.0627L144.876 41.057L144.299 40.24ZM144.059 35.16L143.551 36.0214L143.561 36.0269L144.059 35.16ZM134.219 35.36L133.699 34.5058L133.691 34.5109L134.219 35.36ZM132.059 38.6V39.6H132.904L133.045 38.7674L132.059 38.6ZM125.537 38.6702C125.656 36.9808 126.246 35.4485 127.329 34.053L125.749 32.827C124.432 34.5249 123.689 36.4325 123.542 38.5297L125.537 38.6702ZM127.329 34.053C128.4 32.6723 129.951 31.5403 132.038 30.6854L131.28 28.8346C128.94 29.793 127.078 31.1144 125.749 32.827L127.329 34.053ZM132.044 30.6831C134.131 29.8132 136.687 29.36 139.739 29.36V27.36C136.498 27.36 133.667 27.8402 131.274 28.8369L132.044 30.6831ZM139.739 29.36C142.402 29.36 144.656 29.7095 146.52 30.3809L147.198 28.4991C145.063 27.7305 142.569 27.36 139.739 27.36V29.36ZM146.535 30.3862C148.443 31.0389 149.855 31.9314 150.833 33.0263L152.325 31.6937C151.063 30.2819 149.328 29.2278 147.183 28.4938L146.535 30.3862ZM150.841 33.0343C151.79 34.0744 152.259 35.2864 152.259 36.72H154.259C154.259 34.7936 153.608 33.099 152.318 31.6857L150.841 33.0343ZM152.259 36.72C152.259 37.8609 151.917 38.8938 151.214 39.8461L152.824 41.0339C153.774 39.7462 154.259 38.2991 154.259 36.72H152.259ZM151.212 39.8495C150.56 40.7404 149.479 41.5242 147.86 42.1467L148.578 44.0133C150.426 43.3025 151.878 42.3263 152.826 41.0305L151.212 39.8495ZM147.873 42.1419C146.293 42.7252 144.211 43.026 141.589 43L141.569 44.9999C144.333 45.0273 146.679 44.7148 148.565 44.0181L147.873 42.1419ZM142.579 44V43.2H140.579V44H142.579ZM141.631 44.1986C144.118 44.0691 146.205 44.2538 147.914 44.7241L148.445 42.7959C146.473 42.2529 144.16 42.0642 141.527 42.2014L141.631 44.1986ZM147.914 44.7241C149.623 45.1949 150.85 45.9144 151.677 46.83L153.161 45.49C152.014 44.2189 150.415 43.3384 148.445 42.7959L147.914 44.7241ZM151.677 46.83C152.477 47.7167 152.899 48.8415 152.899 50.28H154.899C154.899 48.4118 154.335 46.79 153.161 45.49L151.677 46.83ZM152.899 50.28C152.899 51.863 152.405 53.2541 151.403 54.49L152.956 55.75C154.246 54.1593 154.899 52.3237 154.899 50.28H152.899ZM151.408 54.4827C150.403 55.6986 148.888 56.7192 146.789 57.5032L147.489 59.3768C149.816 58.5075 151.662 57.3147 152.95 55.7573L151.408 54.4827ZM146.795 57.5009C144.75 58.2492 142.207 58.64 139.139 58.64V60.64C142.364 60.64 145.155 60.2308 147.483 59.3791L146.795 57.5009ZM139.139 58.64C136.163 58.64 133.605 58.2256 131.448 57.4228L130.75 59.2972C133.179 60.2011 135.982 60.64 139.139 60.64V58.64ZM131.461 57.4278C129.32 56.5966 127.7 55.4725 126.549 54.0824L125.009 55.3576C126.418 57.0608 128.345 58.3634 130.737 59.2922L131.461 57.4278ZM126.561 54.0969C125.445 52.6954 124.834 51.0581 124.738 49.1494L122.74 49.2506C122.857 51.5552 123.607 53.598 124.997 55.3431L126.561 54.0969ZM123.739 50.2H131.259V48.2H123.739V50.2ZM130.269 49.3439C130.526 51.1076 131.445 52.4956 132.969 53.448L134.029 51.752C132.993 51.1044 132.419 50.2258 132.249 49.0561L130.269 49.3439ZM132.99 53.4606C134.518 54.3651 136.606 54.76 139.139 54.76V52.76C136.766 52.76 135.093 52.3815 134.008 51.7394L132.99 53.4606ZM139.139 54.76C141.53 54.76 143.497 54.4078 144.919 53.5859L143.919 51.8541C142.941 52.4189 141.388 52.76 139.139 52.76V54.76ZM144.925 53.5824C146.417 52.7069 147.259 51.3998 147.259 49.72H145.259C145.259 50.6002 144.875 51.2931 143.913 51.8576L144.925 53.5824ZM147.259 49.72C147.259 48.787 147.005 47.933 146.427 47.2398L144.891 48.5202C145.113 48.787 145.259 49.1597 145.259 49.72H147.259ZM146.444 47.2604C145.858 46.5186 144.947 46.051 143.887 45.7565L143.351 47.6835C144.211 47.9223 144.66 48.2281 144.874 48.4996L146.444 47.2604ZM143.887 45.7565C142.799 45.4544 141.362 45.32 139.619 45.32V47.32C141.29 47.32 142.519 47.4523 143.351 47.6835L143.887 45.7565ZM139.619 45.32H134.419V47.32H139.619V45.32ZM135.419 46.32V41.16H133.419V46.32H135.419ZM134.419 42.16H139.619V40.16H134.419V42.16ZM139.619 42.16C141.864 42.16 143.688 41.8605 144.859 41.0683L143.739 39.4117C143.097 39.8462 141.801 40.16 139.619 40.16V42.16ZM144.876 41.057C146.018 40.2504 146.659 39.1328 146.659 37.76H144.659C144.659 38.4139 144.393 38.9496 143.722 39.423L144.876 41.057ZM146.659 37.76C146.659 36.2412 145.897 35.0635 144.558 34.2931L143.561 36.0269C144.354 36.4832 144.659 37.0388 144.659 37.76H146.659ZM144.567 34.2986C143.297 33.5497 141.509 33.24 139.339 33.24V35.24C141.383 35.24 142.741 35.5436 143.551 36.0214L144.567 34.2986ZM139.339 33.24C137.058 33.24 135.144 33.6263 133.699 34.5058L134.739 36.2142C135.748 35.6003 137.247 35.24 139.339 35.24V33.24ZM133.691 34.5109C132.244 35.4113 131.36 36.7416 131.073 38.4326L133.045 38.7674C133.238 37.6317 133.794 36.802 134.747 36.2091L133.691 34.5109ZM132.059 37.6H124.539V39.6H132.059V37.6Z" fill="#FFEB1C" mask="url(#path-1-outside-1_2204_195)"/>
<mask id="path-3-outside-2_2204_195" maskUnits="userSpaceOnUse" x="180" y="27" width="364" height="34" fill="black">
<rect fill="white" x="180" y="27" width="364" height="34"/>
<path d="M202.72 44.28L203.36 42.8C205.707 42.8533 207.627 43.2133 209.12 43.88C210.64 44.5467 211.76 45.4667 212.48 46.64C213.227 47.7867 213.6 49.12 213.6 50.64C213.6 52.24 213.227 53.68 212.48 54.96C211.733 56.2133 210.613 57.2 209.12 57.92C207.653 58.64 205.813 59 203.6 59H182L184.32 43.6L182 29H202.84C205.613 29 207.76 29.6533 209.28 30.96C210.827 32.24 211.6 34.0133 211.6 36.28C211.6 37.5333 211.307 38.7333 210.72 39.88C210.133 41.0267 209.2 42 207.92 42.8C206.64 43.5733 204.907 44.0667 202.72 44.28ZM189.44 57.16L186.56 53.6H201.8C203.107 53.6 204.12 53.2933 204.84 52.68C205.587 52.04 205.96 51.1467 205.96 50C205.96 48.8533 205.547 47.9467 204.72 47.28C203.92 46.5867 202.72 46.24 201.12 46.24H188.64V40.96H200.16C201.253 40.96 202.16 40.6533 202.88 40.04C203.6 39.4 203.96 38.5333 203.96 37.44C203.96 36.56 203.653 35.84 203.04 35.28C202.427 34.6933 201.533 34.4 200.36 34.4H186.6L189.44 30.84L191.56 43.6L189.44 57.16ZM225.441 29V55.64L222.041 52.32H244.521V59H217.881V29H225.441ZM253.554 52.96V46.88H274.274V52.96H253.554ZM268.994 29L282.834 59H274.794L262.914 32.16H265.234L253.394 59H245.354L259.194 29H268.994ZM317.051 46.6C316.758 49.1867 315.864 51.4667 314.371 53.44C312.878 55.3867 310.904 56.9067 308.451 58C305.998 59.0933 303.198 59.64 300.051 59.64C296.611 59.64 293.584 58.9867 290.971 57.68C288.384 56.3733 286.371 54.5467 284.931 52.2C283.491 49.8533 282.771 47.12 282.771 44C282.771 40.88 283.491 38.1467 284.931 35.8C286.371 33.4533 288.384 31.6267 290.971 30.32C293.584 29.0133 296.611 28.36 300.051 28.36C303.198 28.36 305.998 28.9067 308.451 30C310.904 31.0933 312.878 32.6133 314.371 34.56C315.864 36.5067 316.758 38.7867 317.051 41.4H309.451C309.184 40.04 308.638 38.88 307.811 37.92C307.011 36.96 305.944 36.2267 304.611 35.72C303.304 35.1867 301.784 34.92 300.051 34.92C298.051 34.92 296.331 35.2933 294.891 36.04C293.451 36.76 292.344 37.8 291.571 39.16C290.798 40.52 290.411 42.1333 290.411 44C290.411 45.8667 290.798 47.48 291.571 48.84C292.344 50.2 293.451 51.2533 294.891 52C296.331 52.72 298.051 53.08 300.051 53.08C301.784 53.08 303.304 52.8267 304.611 52.32C305.944 51.8133 307.011 51.08 307.811 50.12C308.638 49.16 309.184 47.9867 309.451 46.6H317.051ZM321.279 59V29H328.799V52.96L326.759 51.4L344.519 29H352.519L328.079 59H321.279ZM335.639 44.48L341.079 39.8L352.919 59H344.359L335.639 44.48ZM368.748 41.48H390.468V47.92H368.748V41.48ZM391.188 29V35.44H368.908L372.628 31.72V59H365.068V29H391.188ZM400.816 42.2H412.056C413.47 42.2 414.59 41.88 415.416 41.24C416.243 40.5733 416.656 39.6533 416.656 38.48C416.656 37.3067 416.243 36.4 415.416 35.76C414.59 35.0933 413.47 34.76 412.056 34.76H399.736L403.136 31.04V59H395.576V29H413.056C415.296 29 417.256 29.4 418.936 30.2C420.616 31 421.923 32.1067 422.856 33.52C423.79 34.9333 424.256 36.5867 424.256 38.48C424.256 40.3467 423.79 41.9867 422.856 43.4C421.923 44.8133 420.616 45.92 418.936 46.72C417.256 47.4933 415.296 47.88 413.056 47.88H400.816V42.2ZM405.656 44.96H414.176L425.216 59H416.456L405.656 44.96ZM429.17 29H436.73V59H429.17V29ZM457.208 29C460.728 29 463.808 29.6267 466.448 30.88C469.088 32.1333 471.142 33.88 472.608 36.12C474.102 38.36 474.848 40.9867 474.848 44C474.848 46.9867 474.102 49.6133 472.608 51.88C471.142 54.12 469.088 55.8667 466.448 57.12C463.808 58.3733 460.728 59 457.208 59H442.568V29H457.208ZM450.088 55.92L446.408 52.32H457.768C459.688 52.32 461.355 51.9733 462.768 51.28C464.182 50.5867 465.275 49.6267 466.048 48.4C466.822 47.1467 467.208 45.68 467.208 44C467.208 42.2933 466.822 40.8267 466.048 39.6C465.275 38.3733 464.182 37.4133 462.768 36.72C461.355 36.0267 459.688 35.68 457.768 35.68H446.408L450.088 32.08V55.92ZM482.851 52.96V46.88H503.571V52.96H482.851ZM498.291 29L512.131 59H504.091L492.211 32.16H494.531L482.691 59H474.651L488.491 29H498.291ZM520.378 59V44.48H527.938V59H520.378ZM506.298 29H514.658L525.858 43.24H522.378L533.578 29H541.938L526.578 48.52L521.698 48.6L506.298 29Z"/>
</mask>
<path d="M202.72 44.28L201.802 43.8831L201.129 45.44L202.817 45.2753L202.72 44.28ZM203.36 42.8L203.383 41.8003L202.709 41.785L202.442 42.4031L203.36 42.8ZM209.12 43.88L208.712 44.7932L208.718 44.7958L209.12 43.88ZM212.48 46.64L211.628 47.163L211.635 47.1744L211.642 47.1857L212.48 46.64ZM212.48 54.96L213.339 55.4718L213.344 55.4639L212.48 54.96ZM209.12 57.92L208.686 57.0192L208.679 57.0223L209.12 57.92ZM182 59L181.011 58.851L180.838 60H182V59ZM184.32 43.6L185.309 43.749L185.332 43.5959L185.308 43.4431L184.32 43.6ZM182 29V28H180.829L181.012 29.1569L182 29ZM209.28 30.96L208.628 31.7183L208.635 31.7244L208.642 31.7304L209.28 30.96ZM210.72 39.88L209.83 39.4245L209.83 39.4245L210.72 39.88ZM207.92 42.8L208.437 43.6559L208.444 43.652L208.45 43.648L207.92 42.8ZM189.44 57.16L188.663 57.7889L190.08 59.541L190.428 57.3145L189.44 57.16ZM186.56 53.6V52.6H184.465L185.783 54.2289L186.56 53.6ZM204.84 52.68L205.488 53.4412L205.491 53.4393L204.84 52.68ZM204.72 47.28L204.065 48.0357L204.078 48.0473L204.092 48.0584L204.72 47.28ZM188.64 46.24H187.64V47.24H188.64V46.24ZM188.64 40.96V39.96H187.64V40.96H188.64ZM202.88 40.04L203.528 40.8012L203.536 40.7944L203.544 40.7874L202.88 40.04ZM203.04 35.28L202.349 36.0026L202.357 36.0107L202.366 36.0185L203.04 35.28ZM186.6 34.4L185.818 33.7764L184.523 35.4H186.6V34.4ZM189.44 30.84L190.426 30.6761L190.058 28.4612L188.658 30.2164L189.44 30.84ZM191.56 43.6L192.548 43.7545L192.573 43.5952L192.546 43.4361L191.56 43.6ZM203.638 44.6769L204.278 43.1969L202.442 42.4031L201.802 43.8831L203.638 44.6769ZM203.337 43.7997C205.604 43.8513 207.381 44.1988 208.712 44.7931L209.528 42.9669C207.872 42.2279 205.809 41.8554 203.383 41.8003L203.337 43.7997ZM208.718 44.7958C210.091 45.3977 211.035 46.1966 211.628 47.163L213.332 46.117C212.485 44.7367 211.189 43.6956 209.522 42.9642L208.718 44.7958ZM211.642 47.1857C212.271 48.1523 212.6 49.2915 212.6 50.64H214.6C214.6 48.9485 214.182 47.421 213.318 46.0943L211.642 47.1857ZM212.6 50.64C212.6 52.0775 212.267 53.3412 211.616 54.4561L213.344 55.4639C214.187 54.0188 214.6 52.4025 214.6 50.64H212.6ZM211.621 54.4482C210.988 55.5108 210.027 56.3724 208.686 57.0192L209.554 58.8208C211.199 58.0276 212.479 56.9159 213.339 55.4718L211.621 54.4482ZM208.679 57.0223C207.39 57.6555 205.712 58 203.6 58V60C205.915 60 207.917 59.6245 209.561 58.8177L208.679 57.0223ZM203.6 58H182V60H203.6V58ZM182.989 59.149L185.309 43.749L183.331 43.451L181.011 58.851L182.989 59.149ZM185.308 43.4431L182.988 28.8431L181.012 29.1569L183.332 43.7569L185.308 43.4431ZM182 30H202.84V28H182V30ZM202.84 30C205.466 30 207.349 30.6184 208.628 31.7183L209.932 30.2017C208.171 28.6883 205.761 28 202.84 28V30ZM208.642 31.7304C209.928 32.7945 210.6 34.268 210.6 36.28H212.6C212.6 33.7586 211.725 31.6855 209.918 30.1896L208.642 31.7304ZM210.6 36.28C210.6 37.3705 210.346 38.4148 209.83 39.4245L211.61 40.3355C212.267 39.0519 212.6 37.6962 212.6 36.28H210.6ZM209.83 39.4245C209.339 40.3843 208.543 41.2312 207.39 41.952L208.45 43.648C209.857 42.7688 210.928 41.669 211.61 40.3355L209.83 39.4245ZM207.403 41.9441C206.296 42.6126 204.725 43.0796 202.623 43.2847L202.817 45.2753C205.088 45.0537 206.984 44.534 208.437 43.6559L207.403 41.9441ZM190.217 56.5311L187.337 52.9711L185.783 54.2289L188.663 57.7889L190.217 56.5311ZM186.56 54.6H201.8V52.6H186.56V54.6ZM201.8 54.6C203.254 54.6 204.529 54.2586 205.488 53.4412L204.192 51.9188C203.711 52.3281 202.959 52.6 201.8 52.6V54.6ZM205.491 53.4393C206.497 52.5769 206.96 51.3849 206.96 50H204.96C204.96 50.9084 204.676 51.5031 204.189 51.9207L205.491 53.4393ZM206.96 50C206.96 48.5785 206.431 47.3748 205.348 46.5016L204.092 48.0584C204.663 48.5186 204.96 49.1281 204.96 50H206.96ZM205.375 46.5243C204.32 45.61 202.842 45.24 201.12 45.24V47.24C202.598 47.24 203.52 47.5633 204.065 48.0357L205.375 46.5243ZM201.12 45.24H188.64V47.24H201.12V45.24ZM189.64 46.24V40.96H187.64V46.24H189.64ZM188.64 41.96H200.16V39.96H188.64V41.96ZM200.16 41.96C201.452 41.96 202.6 41.5923 203.528 40.8012L202.232 39.2788C201.72 39.7143 201.055 39.96 200.16 39.96V41.96ZM203.544 40.7874C204.508 39.931 204.96 38.7762 204.96 37.44H202.96C202.96 38.2905 202.692 38.869 202.216 39.2926L203.544 40.7874ZM204.96 37.44C204.96 36.2979 204.549 35.3033 203.714 34.5415L202.366 36.0185C202.758 36.3767 202.96 36.8221 202.96 37.44H204.96ZM203.731 34.5574C202.87 33.734 201.691 33.4 200.36 33.4V35.4C201.376 35.4 201.983 35.6527 202.349 36.0026L203.731 34.5574ZM200.36 33.4H186.6V35.4H200.36V33.4ZM187.382 35.0236L190.222 31.4636L188.658 30.2164L185.818 33.7764L187.382 35.0236ZM188.454 31.0039L190.574 43.7639L192.546 43.4361L190.426 30.6761L188.454 31.0039ZM190.572 43.4455L188.452 57.0055L190.428 57.3145L192.548 43.7545L190.572 43.4455ZM225.441 29H226.441V28H225.441V29ZM225.441 55.64L224.742 56.3555L226.441 58.0141V55.64H225.441ZM222.041 52.32V51.32H219.585L221.342 53.0355L222.041 52.32ZM244.521 52.32H245.521V51.32H244.521V52.32ZM244.521 59V60H245.521V59H244.521ZM217.881 59H216.881V60H217.881V59ZM217.881 29V28H216.881V29H217.881ZM224.441 29V55.64H226.441V29H224.441ZM226.14 54.9245L222.74 51.6045L221.342 53.0355L224.742 56.3555L226.14 54.9245ZM222.041 53.32H244.521V51.32H222.041V53.32ZM243.521 52.32V59H245.521V52.32H243.521ZM244.521 58H217.881V60H244.521V58ZM218.881 59V29H216.881V59H218.881ZM217.881 30H225.441V28H217.881V30ZM253.554 52.96H252.554V53.96H253.554V52.96ZM253.554 46.88V45.88H252.554V46.88H253.554ZM274.274 46.88H275.274V45.88H274.274V46.88ZM274.274 52.96V53.96H275.274V52.96H274.274ZM268.994 29L269.902 28.5811L269.634 28H268.994V29ZM282.834 59V60H284.397L283.742 58.5811L282.834 59ZM274.794 59L273.88 59.4047L274.143 60H274.794V59ZM262.914 32.16V31.16H261.378L262 32.5647L262.914 32.16ZM265.234 32.16L266.149 32.5636L266.768 31.16H265.234V32.16ZM253.394 59V60H254.046L254.309 59.4036L253.394 59ZM245.354 59L244.446 58.5811L243.792 60H245.354V59ZM259.194 29V28H258.554L258.286 28.5811L259.194 29ZM254.554 52.96V46.88H252.554V52.96H254.554ZM253.554 47.88H274.274V45.88H253.554V47.88ZM273.274 46.88V52.96H275.274V46.88H273.274ZM274.274 51.96H253.554V53.96H274.274V51.96ZM268.086 29.4189L281.926 59.4189L283.742 58.5811L269.902 28.5811L268.086 29.4189ZM282.834 58H274.794V60H282.834V58ZM275.709 58.5953L263.829 31.7553L262 32.5647L273.88 59.4047L275.709 58.5953ZM262.914 33.16H265.234V31.16H262.914V33.16ZM264.319 31.7564L252.479 58.5964L254.309 59.4036L266.149 32.5636L264.319 31.7564ZM253.394 58H245.354V60H253.394V58ZM246.262 59.4189L260.102 29.4189L258.286 28.5811L244.446 58.5811L246.262 59.4189ZM259.194 30H268.994V28H259.194V30ZM317.051 46.6L318.045 46.7127L318.171 45.6H317.051V46.6ZM314.371 53.44L315.164 54.0487L315.168 54.0434L314.371 53.44ZM308.451 58L308.044 57.0866L308.044 57.0866L308.451 58ZM290.971 57.68L290.52 58.5726L290.524 58.5744L290.971 57.68ZM284.931 52.2L284.079 52.723L284.079 52.723L284.931 52.2ZM284.931 35.8L284.079 35.277L284.079 35.277L284.931 35.8ZM290.971 30.32L290.524 29.4256L290.52 29.4274L290.971 30.32ZM314.371 34.56L313.578 35.1687L313.578 35.1687L314.371 34.56ZM317.051 41.4V42.4H318.169L318.045 41.2885L317.051 41.4ZM309.451 41.4L308.47 41.5924L308.628 42.4H309.451V41.4ZM307.811 37.92L307.043 38.5602L307.048 38.5664L307.053 38.5725L307.811 37.92ZM304.611 35.72L304.233 36.6458L304.244 36.6505L304.256 36.6548L304.611 35.72ZM294.891 36.04L295.338 36.9344L295.345 36.9311L295.351 36.9278L294.891 36.04ZM291.571 39.16L292.44 39.6543L292.44 39.6543L291.571 39.16ZM291.571 48.84L290.702 49.3343L290.702 49.3343L291.571 48.84ZM294.891 52L294.431 52.8878L294.437 52.8911L294.444 52.8944L294.891 52ZM304.611 52.32L304.256 51.3852L304.249 51.3876L304.611 52.32ZM307.811 50.12L307.053 49.4675L307.048 49.4736L307.043 49.4798L307.811 50.12ZM309.451 46.6V45.6H308.625L308.469 46.4112L309.451 46.6ZM316.057 46.4873C315.783 48.9054 314.953 51.0138 313.574 52.8366L315.168 54.0434C316.776 51.9195 317.732 49.4679 318.045 46.7127L316.057 46.4873ZM313.578 52.8313C312.195 54.6336 310.36 56.0545 308.044 57.0866L308.858 58.9134C311.449 57.7588 313.56 56.1398 315.164 54.0487L313.578 52.8313ZM308.044 57.0866C305.739 58.1139 303.081 58.64 300.051 58.64V60.64C303.314 60.64 306.256 60.0728 308.858 58.9134L308.044 57.0866ZM300.051 58.64C296.739 58.64 293.87 58.0115 291.418 56.7856L290.524 58.5744C293.299 59.9618 296.483 60.64 300.051 60.64V58.64ZM291.422 56.7874C288.992 55.5598 287.121 53.8572 285.783 51.677L284.079 52.723C285.621 55.2362 287.777 57.1869 290.52 58.5726L291.422 56.7874ZM285.783 51.677C284.452 49.5078 283.771 46.9606 283.771 44H281.771C281.771 47.2794 282.53 50.1988 284.079 52.723L285.783 51.677ZM283.771 44C283.771 41.0394 284.452 38.4922 285.783 36.323L284.079 35.277C282.53 37.8012 281.771 40.7206 281.771 44H283.771ZM285.783 36.323C287.121 34.1428 288.992 32.4402 291.422 31.2126L290.52 29.4274C287.777 30.8131 285.621 32.7638 284.079 35.277L285.783 36.323ZM291.418 31.2144C293.87 29.9885 296.739 29.36 300.051 29.36V27.36C296.483 27.36 293.299 28.0382 290.524 29.4256L291.418 31.2144ZM300.051 29.36C303.081 29.36 305.739 29.8861 308.044 30.9134L308.858 29.0866C306.256 27.9272 303.314 27.36 300.051 27.36V29.36ZM308.044 30.9134C310.36 31.9455 312.195 33.3664 313.578 35.1687L315.164 33.9513C313.56 31.8602 311.449 30.2412 308.858 29.0866L308.044 30.9134ZM313.578 35.1687C314.952 36.9605 315.783 39.0656 316.057 41.5115L318.045 41.2885C317.733 38.5078 316.776 36.0528 315.164 33.9513L313.578 35.1687ZM317.051 40.4H309.451V42.4H317.051V40.4ZM310.432 41.2076C310.135 39.6939 309.519 38.371 308.569 37.2675L307.053 38.5725C307.756 39.389 308.233 40.3861 308.47 41.5924L310.432 41.2076ZM308.579 37.2798C307.654 36.17 306.437 35.3442 304.966 34.7852L304.256 36.6548C305.451 37.1091 306.368 37.75 307.043 38.5602L308.579 37.2798ZM304.989 34.7942C303.538 34.2021 301.885 33.92 300.051 33.92V35.92C301.683 35.92 303.07 36.1713 304.233 36.6458L304.989 34.7942ZM300.051 33.92C297.927 33.92 296.042 34.3166 294.431 35.1522L295.351 36.9278C296.62 36.2701 298.174 35.92 300.051 35.92V33.92ZM294.444 35.1456C292.832 35.9515 291.576 37.1282 290.702 38.6657L292.44 39.6543C293.113 38.4718 294.07 37.5685 295.338 36.9344L294.444 35.1456ZM290.702 38.6657C289.827 40.203 289.411 41.9935 289.411 44H291.411C291.411 42.2731 291.768 40.837 292.44 39.6543L290.702 38.6657ZM289.411 44C289.411 46.0065 289.827 47.797 290.702 49.3343L292.44 48.3457C291.768 47.163 291.411 45.7269 291.411 44H289.411ZM290.702 49.3343C291.574 50.8686 292.826 52.0556 294.431 52.8878L295.351 51.1122C294.076 50.451 293.114 49.5314 292.44 48.3457L290.702 49.3343ZM294.444 52.8944C296.052 53.6986 297.933 54.08 300.051 54.08V52.08C298.169 52.08 296.61 51.7414 295.338 51.1056L294.444 52.8944ZM300.051 54.08C301.88 54.08 303.527 53.8129 304.972 53.2524L304.249 51.3876C303.082 51.8404 301.689 52.08 300.051 52.08V54.08ZM304.966 53.2548C306.437 52.6958 307.654 51.87 308.579 50.7602L307.043 49.4798C306.368 50.29 305.451 50.9309 304.256 51.3852L304.966 53.2548ZM308.569 50.7725C309.522 49.6655 310.137 48.3269 310.433 46.7888L308.469 46.4112C308.231 47.6464 307.753 48.6545 307.053 49.4675L308.569 50.7725ZM309.451 47.6H317.051V45.6H309.451V47.6ZM321.279 59H320.279V60H321.279V59ZM321.279 29V28H320.279V29H321.279ZM328.799 29H329.799V28H328.799V29ZM328.799 52.96L328.192 53.7544L329.799 54.9836V52.96H328.799ZM326.759 51.4L325.976 50.7787L325.344 51.5762L326.152 52.1944L326.759 51.4ZM344.519 29V28H344.036L343.736 28.3787L344.519 29ZM352.519 29L353.295 29.6316L354.624 28H352.519V29ZM328.079 59V60H328.555L328.855 59.6316L328.079 59ZM335.639 44.48L334.987 43.7219L334.348 44.2719L334.782 44.9948L335.639 44.48ZM341.079 39.8L341.931 39.2751L341.315 38.2777L340.427 39.0419L341.079 39.8ZM352.919 59V60H354.711L353.771 58.4751L352.919 59ZM344.359 59L343.502 59.5148L343.793 60H344.359V59ZM322.279 59V29H320.279V59H322.279ZM321.279 30H328.799V28H321.279V30ZM327.799 29V52.96H329.799V29H327.799ZM329.407 52.1656L327.367 50.6056L326.152 52.1944L328.192 53.7544L329.407 52.1656ZM327.543 52.0213L345.303 29.6213L343.736 28.3787L325.976 50.7787L327.543 52.0213ZM344.519 30H352.519V28H344.519V30ZM351.744 28.3684L327.304 58.3684L328.855 59.6316L353.295 29.6316L351.744 28.3684ZM328.079 58H321.279V60H328.079V58ZM336.292 45.2381L341.732 40.5581L340.427 39.0419L334.987 43.7219L336.292 45.2381ZM340.228 40.3249L352.068 59.5249L353.771 58.4751L341.931 39.2751L340.228 40.3249ZM352.919 58H344.359V60H352.919V58ZM345.217 58.4852L336.497 43.9652L334.782 44.9948L343.502 59.5148L345.217 58.4852ZM368.748 41.48V40.48H367.748V41.48H368.748ZM390.468 41.48H391.468V40.48H390.468V41.48ZM390.468 47.92V48.92H391.468V47.92H390.468ZM368.748 47.92H367.748V48.92H368.748V47.92ZM391.188 29H392.188V28H391.188V29ZM391.188 35.44V36.44H392.188V35.44H391.188ZM368.908 35.44L368.201 34.7329L366.494 36.44H368.908V35.44ZM372.628 31.72H373.628V29.3058L371.921 31.0129L372.628 31.72ZM372.628 59V60H373.628V59H372.628ZM365.068 59H364.068V60H365.068V59ZM365.068 29V28H364.068V29H365.068ZM368.748 42.48H390.468V40.48H368.748V42.48ZM389.468 41.48V47.92H391.468V41.48H389.468ZM390.468 46.92H368.748V48.92H390.468V46.92ZM369.748 47.92V41.48H367.748V47.92H369.748ZM390.188 29V35.44H392.188V29H390.188ZM391.188 34.44H368.908V36.44H391.188V34.44ZM369.616 36.1471L373.336 32.4271L371.921 31.0129L368.201 34.7329L369.616 36.1471ZM371.628 31.72V59H373.628V31.72H371.628ZM372.628 58H365.068V60H372.628V58ZM366.068 59V29H364.068V59H366.068ZM365.068 30H391.188V28H365.068V30ZM400.816 42.2V41.2H399.816V42.2H400.816ZM415.416 41.24L416.028 42.0307L416.036 42.0246L416.044 42.0184L415.416 41.24ZM415.416 35.76L414.788 36.5384L414.796 36.5446L414.804 36.5507L415.416 35.76ZM399.736 34.76L398.998 34.0854L397.468 35.76H399.736V34.76ZM403.136 31.04H404.136V28.4636L402.398 30.3654L403.136 31.04ZM403.136 59V60H404.136V59H403.136ZM395.576 59H394.576V60H395.576V59ZM395.576 29V28H394.576V29H395.576ZM418.936 30.2L418.506 31.1029L418.506 31.1029L418.936 30.2ZM422.856 33.52L423.691 32.9689L423.691 32.9689L422.856 33.52ZM422.856 43.4L423.691 43.9511L423.691 43.9511L422.856 43.4ZM418.936 46.72L419.354 47.6285L419.366 47.6229L418.936 46.72ZM400.816 47.88H399.816V48.88H400.816V47.88ZM405.656 44.96V43.96H403.625L404.864 45.5697L405.656 44.96ZM414.176 44.96L414.962 44.3419L414.662 43.96H414.176V44.96ZM425.216 59V60H427.275L426.002 58.3819L425.216 59ZM416.456 59L415.664 59.6097L415.964 60H416.456V59ZM400.816 43.2H412.056V41.2H400.816V43.2ZM412.056 43.2C413.614 43.2 414.974 42.8472 416.028 42.0307L414.804 40.4493C414.205 40.9128 413.325 41.2 412.056 41.2V43.2ZM416.044 42.0184C417.133 41.1404 417.656 39.9197 417.656 38.48H415.656C415.656 39.387 415.353 40.0063 414.788 40.4616L416.044 42.0184ZM417.656 38.48C417.656 37.0405 417.132 35.8236 416.028 34.9693L414.804 36.5507C415.354 36.9764 415.656 37.5729 415.656 38.48H417.656ZM416.044 34.9816C414.988 34.1303 413.622 33.76 412.056 33.76V35.76C413.317 35.76 414.191 36.0564 414.788 36.5384L416.044 34.9816ZM412.056 33.76H399.736V35.76H412.056V33.76ZM400.474 35.4346L403.874 31.7146L402.398 30.3654L398.998 34.0854L400.474 35.4346ZM402.136 31.04V59H404.136V31.04H402.136ZM403.136 58H395.576V60H403.136V58ZM396.576 59V29H394.576V59H396.576ZM395.576 30H413.056V28H395.576V30ZM413.056 30C415.177 30 416.985 30.3785 418.506 31.1029L419.366 29.2971C417.527 28.4215 415.415 28 413.056 28V30ZM418.506 31.1029C420.039 31.8326 421.199 32.8244 422.022 34.0711L423.691 32.9689C422.647 31.389 421.194 30.1674 419.366 29.2971L418.506 31.1029ZM422.022 34.0711C422.835 35.302 423.256 36.7587 423.256 38.48H425.256C425.256 36.4146 424.744 34.5647 423.691 32.9689L422.022 34.0711ZM423.256 38.48C423.256 40.1715 422.836 41.6156 422.022 42.8489L423.691 43.9511C424.743 42.3577 425.256 40.5218 425.256 38.48H423.256ZM422.022 42.8489C421.199 44.0956 420.039 45.0874 418.506 45.8171L419.366 47.6229C421.194 46.7526 422.647 45.531 423.691 43.9511L422.022 42.8489ZM418.518 45.8116C416.994 46.5132 415.182 46.88 413.056 46.88V48.88C415.411 48.88 417.519 48.4734 419.354 47.6284L418.518 45.8116ZM413.056 46.88H400.816V48.88H413.056V46.88ZM401.816 47.88V42.2H399.816V47.88H401.816ZM405.656 45.96H414.176V43.96H405.656V45.96ZM413.39 45.5781L424.43 59.6181L426.002 58.3819L414.962 44.3419L413.39 45.5781ZM425.216 58H416.456V60H425.216V58ZM417.249 58.3903L406.449 44.3503L404.864 45.5697L415.664 59.6097L417.249 58.3903ZM429.17 29V28H428.17V29H429.17ZM436.73 29H437.73V28H436.73V29ZM436.73 59V60H437.73V59H436.73ZM429.17 59H428.17V60H429.17V59ZM429.17 30H436.73V28H429.17V30ZM435.73 29V59H437.73V29H435.73ZM436.73 58H429.17V60H436.73V58ZM430.17 59V29H428.17V59H430.17ZM466.448 30.88L466.02 31.7834L466.02 31.7834L466.448 30.88ZM472.608 36.12L471.772 36.6678L471.776 36.6747L472.608 36.12ZM472.608 51.88L471.773 51.3298L471.772 51.3322L472.608 51.88ZM466.448 57.12L466.02 56.2166L466.02 56.2166L466.448 57.12ZM442.568 59H441.568V60H442.568V59ZM442.568 29V28H441.568V29H442.568ZM450.088 55.92L449.389 56.6348L451.088 58.2972V55.92H450.088ZM446.408 52.32V51.32H443.956L445.709 53.0348L446.408 52.32ZM462.768 51.28L462.328 50.3822L462.328 50.3822L462.768 51.28ZM466.048 48.4L466.894 48.9333L466.899 48.9251L466.048 48.4ZM466.048 39.6L465.203 40.1333L466.048 39.6ZM462.768 36.72L463.209 35.8222L463.209 35.8222L462.768 36.72ZM446.408 35.68L445.709 34.9652L443.956 36.68H446.408V35.68ZM450.088 32.08H451.088V29.7028L449.389 31.3652L450.088 32.08ZM457.208 30C460.61 30 463.538 30.6053 466.02 31.7834L466.877 29.9766C464.079 28.648 460.847 28 457.208 28V30ZM466.02 31.7834C468.509 32.9653 470.415 34.5955 471.772 36.6678L473.445 35.5722C471.869 33.1645 469.668 31.3013 466.877 29.9766L466.02 31.7834ZM471.776 36.6747C473.147 38.7312 473.848 41.1597 473.848 44H475.848C475.848 40.8137 475.056 37.9888 473.44 35.5653L471.776 36.6747ZM473.848 44C473.848 46.8115 473.148 49.2427 471.773 51.3298L473.444 52.4302C475.055 49.9839 475.848 47.1618 475.848 44H473.848ZM471.772 51.3322C470.415 53.4045 468.509 55.0347 466.02 56.2166L466.877 58.0234C469.668 56.6987 471.869 54.8355 473.445 52.4278L471.772 51.3322ZM466.02 56.2166C463.538 57.3947 460.61 58 457.208 58V60C460.847 60 464.079 59.352 466.877 58.0234L466.02 56.2166ZM457.208 58H442.568V60H457.208V58ZM443.568 59V29H441.568V59H443.568ZM442.568 30H457.208V28H442.568V30ZM450.788 55.2052L447.108 51.6052L445.709 53.0348L449.389 56.6348L450.788 55.2052ZM446.408 53.32H457.768V51.32H446.408V53.32ZM457.768 53.32C459.808 53.32 461.632 52.9515 463.209 52.1778L462.328 50.3822C461.079 50.9951 459.569 51.32 457.768 51.32V53.32ZM463.209 52.1778C464.774 51.4101 466.014 50.33 466.894 48.9333L465.203 47.8667C464.536 48.9233 463.59 49.7632 462.328 50.3822L463.209 52.1778ZM466.899 48.9251C467.783 47.4927 468.208 45.8388 468.208 44H466.208C466.208 45.5212 465.86 46.8007 465.197 47.8749L466.899 48.9251ZM468.208 44C468.208 42.1385 467.785 40.4795 466.894 39.0667L465.203 40.1333C465.859 41.1739 466.208 42.4482 466.208 44H468.208ZM466.894 39.0667C466.014 37.67 464.774 36.5899 463.209 35.8222L462.328 37.6178C463.59 38.2368 464.536 39.0767 465.203 40.1333L466.894 39.0667ZM463.209 35.8222C461.632 35.0485 459.808 34.68 457.768 34.68V36.68C459.569 36.68 461.079 37.0049 462.328 37.6178L463.209 35.8222ZM457.768 34.68H446.408V36.68H457.768V34.68ZM447.108 36.3948L450.788 32.7948L449.389 31.3652L445.709 34.9652L447.108 36.3948ZM449.088 32.08V55.92H451.088V32.08H449.088ZM482.851 52.96H481.851V53.96H482.851V52.96ZM482.851 46.88V45.88H481.851V46.88H482.851ZM503.571 46.88H504.571V45.88H503.571V46.88ZM503.571 52.96V53.96H504.571V52.96H503.571ZM498.291 29L499.199 28.5811L498.931 28H498.291V29ZM512.131 59V60H513.694L513.039 58.5811L512.131 59ZM504.091 59L503.177 59.4047L503.44 60H504.091V59ZM492.211 32.16V31.16H490.675L491.297 32.5647L492.211 32.16ZM494.531 32.16L495.446 32.5636L496.065 31.16H494.531V32.16ZM482.691 59V60H483.343L483.606 59.4036L482.691 59ZM474.651 59L473.743 58.5811L473.089 60H474.651V59ZM488.491 29V28H487.851L487.583 28.5811L488.491 29ZM483.851 52.96V46.88H481.851V52.96H483.851ZM482.851 47.88H503.571V45.88H482.851V47.88ZM502.571 46.88V52.96H504.571V46.88H502.571ZM503.571 51.96H482.851V53.96H503.571V51.96ZM497.383 29.4189L511.223 59.4189L513.039 58.5811L499.199 28.5811L497.383 29.4189ZM512.131 58H504.091V60H512.131V58ZM505.006 58.5953L493.126 31.7553L491.297 32.5647L503.177 59.4047L505.006 58.5953ZM492.211 33.16H494.531V31.16H492.211V33.16ZM493.616 31.7564L481.776 58.5964L483.606 59.4036L495.446 32.5636L493.616 31.7564ZM482.691 58H474.651V60H482.691V58ZM475.559 59.4189L489.399 29.4189L487.583 28.5811L473.743 58.5811L475.559 59.4189ZM488.491 30H498.291V28H488.491V30ZM520.378 59H519.378V60H520.378V59ZM520.378 44.48V43.48H519.378V44.48H520.378ZM527.938 44.48H528.938V43.48H527.938V44.48ZM527.938 59V60H528.938V59H527.938ZM506.298 29V28H504.24L505.511 29.6178L506.298 29ZM514.658 29L515.444 28.3818L515.143 28H514.658V29ZM525.858 43.24V44.24H527.916L526.644 42.6218L525.858 43.24ZM522.378 43.24L521.591 42.6218L520.319 44.24H522.378V43.24ZM533.578 29V28H533.092L532.791 28.3818L533.578 29ZM541.938 29L542.723 29.6184L543.997 28H541.938V29ZM526.578 48.52L526.594 49.5199L527.069 49.5121L527.363 49.1384L526.578 48.52ZM521.698 48.6L520.911 49.2178L521.218 49.608L521.714 49.5999L521.698 48.6ZM521.378 59V44.48H519.378V59H521.378ZM520.378 45.48H527.938V43.48H520.378V45.48ZM526.938 44.48V59H528.938V44.48H526.938ZM527.938 58H520.378V60H527.938V58ZM506.298 30H514.658V28H506.298V30ZM513.871 29.6182L525.071 43.8582L526.644 42.6218L515.444 28.3818L513.871 29.6182ZM525.858 42.24H522.378V44.24H525.858V42.24ZM523.164 43.8582L534.364 29.6182L532.791 28.3818L521.591 42.6218L523.164 43.8582ZM533.578 30H541.938V28H533.578V30ZM541.152 28.3816L525.792 47.9016L527.363 49.1384L542.723 29.6184L541.152 28.3816ZM526.561 47.5201L521.681 47.6001L521.714 49.5999L526.594 49.5199L526.561 47.5201ZM522.484 47.9822L507.084 28.3822L505.511 29.6178L520.911 49.2178L522.484 47.9822Z" fill="#FFEB1C" mask="url(#path-3-outside-2_2204_195)"/>
<path d="M588.543 29.5307L594.686 47.2924M594.686 47.2924L594.242 64.7076M594.686 47.2924L575 60.722M594.686 47.2924L613.853 48.5054M594.686 47.2924L605.343 20M594.686 47.2924L621.032 61.5018M594.686 47.2924L584.251 65.9206M594.686 47.2924L575.962 30.7437M594.686 47.2924L612.669 34.4693M594.686 47.2924L578.478 45.8195M594.686 47.2924L605.343 68" stroke="#8F8FFF" stroke-width="2.4"/>
<mask id="path-6-outside-3_2204_195" maskUnits="userSpaceOnUse" x="653.032" y="27" width="135" height="34" fill="black">
<rect fill="white" x="653.032" y="27" width="135" height="34"/>
<path d="M654.472 39.68C654.632 37.36 655.392 35.36 656.752 33.68C658.112 31.9733 659.912 30.6667 662.152 29.76C664.419 28.8267 666.979 28.36 669.832 28.36C672.552 28.36 674.925 28.7733 676.952 29.6C678.979 30.4267 680.565 31.5867 681.712 33.08C682.859 34.5733 683.432 36.2933 683.432 38.24C683.432 39.76 683.032 41.1733 682.232 42.48C681.432 43.76 680.165 45.04 678.432 46.32C676.699 47.6 674.419 48.96 671.592 50.4L662.912 54.96L662.512 53H684.272V59H654.992V53.72L667.872 46.32C669.925 45.1467 671.525 44.1467 672.672 43.32C673.845 42.4667 674.672 41.68 675.152 40.96C675.632 40.24 675.872 39.4667 675.872 38.64C675.872 37.7867 675.632 37.0267 675.152 36.36C674.699 35.6933 674.005 35.1733 673.072 34.8C672.139 34.4267 670.965 34.24 669.552 34.24C667.872 34.24 666.485 34.4933 665.392 35C664.299 35.48 663.485 36.1333 662.952 36.96C662.419 37.7867 662.099 38.6933 661.992 39.68H654.472ZM704.322 59.64C700.935 59.64 698.002 58.9867 695.522 57.68C693.042 56.3733 691.122 54.56 689.762 52.24C688.402 49.8933 687.722 47.1467 687.722 44C687.722 40.88 688.402 38.1467 689.762 35.8C691.122 33.4533 693.042 31.6267 695.522 30.32C698.002 29.0133 700.935 28.36 704.322 28.36C707.682 28.36 710.602 29.0133 713.082 30.32C715.562 31.6267 717.482 33.4533 718.842 35.8C720.202 38.12 720.882 40.8533 720.882 44C720.882 47.12 720.202 49.8533 718.842 52.2C717.482 54.5467 715.562 56.3733 713.082 57.68C710.602 58.9867 707.682 59.64 704.322 59.64ZM704.322 53.48C707.175 53.48 709.388 52.6533 710.962 51C712.562 49.3467 713.362 47.0133 713.362 44C713.362 40.9867 712.562 38.6533 710.962 37C709.388 35.3467 707.175 34.52 704.322 34.52C701.468 34.52 699.242 35.3467 697.642 37C696.042 38.6533 695.242 40.9867 695.242 44C695.242 47.0133 696.042 49.3467 697.642 51C699.242 52.6533 701.468 53.48 704.322 53.48ZM724.081 39.68C724.241 37.36 725.001 35.36 726.361 33.68C727.721 31.9733 729.521 30.6667 731.761 29.76C734.028 28.8267 736.588 28.36 739.441 28.36C742.161 28.36 744.535 28.7733 746.561 29.6C748.588 30.4267 750.175 31.5867 751.321 33.08C752.468 34.5733 753.041 36.2933 753.041 38.24C753.041 39.76 752.641 41.1733 751.841 42.48C751.041 43.76 749.775 45.04 748.041 46.32C746.308 47.6 744.028 48.96 741.201 50.4L732.521 54.96L732.121 53H753.881V59H724.601V53.72L737.481 46.32C739.535 45.1467 741.135 44.1467 742.281 43.32C743.455 42.4667 744.281 41.68 744.761 40.96C745.241 40.24 745.481 39.4667 745.481 38.64C745.481 37.7867 745.241 37.0267 744.761 36.36C744.308 35.6933 743.615 35.1733 742.681 34.8C741.748 34.4267 740.575 34.24 739.161 34.24C737.481 34.24 736.095 34.4933 735.001 35C733.908 35.48 733.095 36.1333 732.561 36.96C732.028 37.7867 731.708 38.6933 731.601 39.68H724.081ZM757.571 38.6C757.704 36.7067 758.371 34.9867 759.571 33.44C760.771 31.8933 762.478 30.6667 764.691 29.76C766.931 28.8267 769.624 28.36 772.771 28.36C775.518 28.36 777.891 28.72 779.891 29.44C781.918 30.1333 783.491 31.1067 784.611 32.36C785.731 33.5867 786.291 35.04 786.291 36.72C786.291 38.08 785.878 39.32 785.051 40.44C784.251 41.5333 782.984 42.4133 781.251 43.08C779.518 43.72 777.304 44.0267 774.611 44V43.2C777.171 43.0667 779.371 43.2533 781.211 43.76C783.051 44.2667 784.464 45.0667 785.451 46.16C786.438 47.2533 786.931 48.6267 786.931 50.28C786.931 52.0933 786.358 53.7067 785.211 55.12C784.064 56.5067 782.384 57.6133 780.171 58.44C777.984 59.24 775.318 59.64 772.171 59.64C769.104 59.64 766.424 59.2133 764.131 58.36C761.864 57.48 760.091 56.2667 758.811 54.72C757.558 53.1467 756.878 51.3067 756.771 49.2H764.291C764.504 50.6667 765.251 51.8 766.531 52.6C767.838 53.3733 769.718 53.76 772.171 53.76C774.491 53.76 776.251 53.4133 777.451 52.72C778.678 52 779.291 51 779.291 49.72C779.291 48.9733 779.091 48.36 778.691 47.88C778.291 47.3733 777.611 46.9867 776.651 46.72C775.691 46.4533 774.358 46.32 772.651 46.32H767.451V41.16H772.651C774.864 41.16 776.424 40.8533 777.331 40.24C778.238 39.6 778.691 38.7733 778.691 37.76C778.691 36.64 778.158 35.7733 777.091 35.16C776.051 34.5467 774.478 34.24 772.371 34.24C770.184 34.24 768.478 34.6133 767.251 35.36C766.051 36.1067 765.331 37.1867 765.091 38.6H757.571Z"/>
</mask>
<path d="M654.472 39.68L653.474 39.6112L653.401 40.68H654.472V39.68ZM656.752 33.68L657.529 34.3092L657.534 34.3032L656.752 33.68ZM662.152 29.76L662.527 30.687L662.533 30.6847L662.152 29.76ZM676.952 29.6L676.574 30.5259L676.574 30.5259L676.952 29.6ZM681.712 33.08L680.919 33.689L680.919 33.689L681.712 33.08ZM682.232 42.48L683.08 43.01L683.085 43.0022L682.232 42.48ZM678.432 46.32L679.026 47.1244L679.026 47.1244L678.432 46.32ZM671.592 50.4L671.138 49.5089L671.127 49.5147L671.592 50.4ZM662.912 54.96L661.932 55.16L662.198 56.4645L663.377 55.8453L662.912 54.96ZM662.512 53V52H661.287L661.532 53.2L662.512 53ZM684.272 53H685.272V52H684.272V53ZM684.272 59V60H685.272V59H684.272ZM654.992 59H653.992V60H654.992V59ZM654.992 53.72L654.494 52.8529L653.992 53.1412V53.72H654.992ZM667.872 46.32L667.376 45.4518L667.374 45.4529L667.872 46.32ZM672.672 43.32L673.257 44.1312L673.26 44.1287L672.672 43.32ZM675.152 40.96L674.32 40.4053L674.32 40.4053L675.152 40.96ZM675.152 36.36L674.325 36.9223L674.332 36.9334L674.34 36.9443L675.152 36.36ZM673.072 34.8L673.443 33.8715L673.443 33.8715L673.072 34.8ZM665.392 35L665.794 35.9156L665.803 35.9116L665.812 35.9073L665.392 35ZM662.952 36.96L663.792 37.5021L663.792 37.5021L662.952 36.96ZM661.992 39.68V40.68H662.89L662.986 39.7875L661.992 39.68ZM655.469 39.7488C655.616 37.6174 656.308 35.8172 657.529 34.3092L655.975 33.0508C654.475 34.9028 653.647 37.1026 653.474 39.6112L655.469 39.7488ZM657.534 34.3032C658.775 32.7451 660.429 31.5361 662.527 30.6869L661.777 28.8331C659.395 29.7972 657.448 31.2015 655.97 33.0568L657.534 34.3032ZM662.533 30.6847C664.66 29.8085 667.088 29.36 669.832 29.36V27.36C666.869 27.36 664.177 27.8448 661.771 28.8353L662.533 30.6847ZM669.832 29.36C672.453 29.36 674.693 29.7585 676.574 30.5259L677.33 28.6741C675.158 27.7882 672.651 27.36 669.832 27.36V29.36ZM676.574 30.5259C678.464 31.2967 679.896 32.3577 680.919 33.689L682.505 32.471C681.234 30.8156 679.493 29.5567 677.33 28.6741L676.574 30.5259ZM680.919 33.689C681.926 35.0014 682.432 36.5055 682.432 38.24H684.432C684.432 36.0811 683.791 34.1453 682.505 32.471L680.919 33.689ZM682.432 38.24C682.432 39.5742 682.084 40.807 681.379 41.9578L683.085 43.0022C683.98 41.5396 684.432 39.9458 684.432 38.24H682.432ZM681.384 41.95C680.672 43.0882 679.51 44.2809 677.838 45.5156L679.026 47.1244C680.821 45.7991 682.191 44.4318 683.08 43.01L681.384 41.95ZM677.838 45.5156C676.164 46.7515 673.936 48.0834 671.138 49.509L672.046 51.291C674.901 49.8366 677.233 48.4485 679.026 47.1244L677.838 45.5156ZM671.127 49.5147L662.447 54.0747L663.377 55.8453L672.057 51.2853L671.127 49.5147ZM663.892 54.76L663.492 52.8L661.532 53.2L661.932 55.16L663.892 54.76ZM662.512 54H684.272V52H662.512V54ZM683.272 53V59H685.272V53H683.272ZM684.272 58H654.992V60H684.272V58ZM655.992 59V53.72H653.992V59H655.992ZM655.49 54.5871L668.37 47.1871L667.374 45.4529L654.494 52.8529L655.49 54.5871ZM668.368 47.1882C670.435 46.0074 672.069 44.9875 673.257 44.1312L672.087 42.5088C670.982 43.3058 669.416 44.286 667.376 45.4518L668.368 47.1882ZM673.26 44.1287C674.473 43.2463 675.409 42.3776 675.984 41.5147L674.32 40.4053C673.935 40.9824 673.217 41.687 672.084 42.5113L673.26 44.1287ZM675.984 41.5147C676.568 40.6385 676.872 39.6736 676.872 38.64H674.872C674.872 39.2597 674.696 39.8415 674.32 40.4053L675.984 41.5147ZM676.872 38.64C676.872 37.5856 676.571 36.6195 675.963 35.7757L674.34 36.9443C674.693 37.4339 674.872 37.9877 674.872 38.64H676.872ZM675.979 35.7977C675.389 34.9298 674.516 34.3005 673.443 33.8715L672.7 35.7285C673.495 36.0462 674.008 36.4569 674.325 36.9223L675.979 35.7977ZM673.443 33.8715C672.354 33.4359 671.045 33.24 669.552 33.24V35.24C670.886 35.24 671.923 35.4174 672.7 35.7285L673.443 33.8715ZM669.552 33.24C667.78 33.24 666.238 33.5059 664.971 34.0927L665.812 35.9073C666.733 35.4808 667.963 35.24 669.552 35.24V33.24ZM664.99 34.0844C663.756 34.6262 662.772 35.3941 662.112 36.4179L663.792 37.5021C664.198 36.8726 664.841 36.3338 665.794 35.9156L664.99 34.0844ZM662.112 36.4179C661.493 37.3766 661.121 38.4324 660.998 39.5725L662.986 39.7875C663.076 38.9543 663.344 38.1967 663.792 37.5021L662.112 36.4179ZM661.992 38.68H654.472V40.68H661.992V38.68ZM695.522 57.68L695.055 58.5647L695.055 58.5647L695.522 57.68ZM689.762 52.24L688.896 52.7414L688.899 52.7457L689.762 52.24ZM689.762 35.8L688.896 35.2986L688.896 35.2986L689.762 35.8ZM695.522 30.32L695.988 31.2047L695.988 31.2047L695.522 30.32ZM713.082 30.32L712.615 31.2047L712.615 31.2047L713.082 30.32ZM718.842 35.8L717.976 36.3014L717.979 36.3057L718.842 35.8ZM718.842 52.2L719.707 52.7014L719.707 52.7014L718.842 52.2ZM713.082 57.68L713.548 58.5647L713.082 57.68ZM710.962 51L710.243 50.3046L710.237 50.3106L710.962 51ZM710.962 37L710.237 37.6894L710.243 37.6954L710.962 37ZM697.642 37L698.36 37.6954L698.36 37.6954L697.642 37ZM697.642 51L696.923 51.6954L696.923 51.6954L697.642 51ZM704.322 58.64C701.064 58.64 698.297 58.012 695.988 56.7953L695.055 58.5647C697.706 59.9613 700.806 60.64 704.322 60.64V58.64ZM695.988 56.7953C693.665 55.5717 691.886 53.8865 690.624 51.7343L688.899 52.7457C690.357 55.2335 692.418 57.175 695.055 58.5647L695.988 56.7953ZM690.627 51.7386C689.368 49.5672 688.722 46.9991 688.722 44H686.722C686.722 47.2942 687.435 50.2195 688.896 52.7414L690.627 51.7386ZM688.722 44C688.722 41.0292 689.368 38.4741 690.627 36.3014L688.896 35.2986C687.435 37.8193 686.722 40.7308 686.722 44H688.722ZM690.627 36.3014C691.889 34.1232 693.668 32.4268 695.988 31.2047L695.055 29.4353C692.415 30.8265 690.354 32.7835 688.896 35.2986L690.627 36.3014ZM695.988 31.2047C698.297 29.988 701.064 29.36 704.322 29.36V27.36C700.806 27.36 697.706 28.0387 695.055 29.4353L695.988 31.2047ZM704.322 29.36C707.551 29.36 710.305 29.9874 712.615 31.2047L713.548 29.4353C710.898 28.0392 707.812 27.36 704.322 27.36V29.36ZM712.615 31.2047C714.935 32.4268 716.714 34.1232 717.976 36.3014L719.707 35.2986C718.249 32.7835 716.188 30.8265 713.548 29.4353L712.615 31.2047ZM717.979 36.3057C719.235 38.448 719.882 41.0006 719.882 44H721.882C721.882 40.7061 721.168 37.792 719.704 35.2943L717.979 36.3057ZM719.882 44C719.882 46.9708 719.235 49.5259 717.976 51.6986L719.707 52.7014C721.168 50.1807 721.882 47.2692 721.882 44H719.882ZM717.976 51.6986C716.714 53.8768 714.935 55.5732 712.615 56.7953L713.548 58.5647C716.188 57.1735 718.249 55.2165 719.707 52.7014L717.976 51.6986ZM712.615 56.7953C710.305 58.0126 707.551 58.64 704.322 58.64V60.64C707.812 60.64 710.898 59.9608 713.548 58.5647L712.615 56.7953ZM704.322 54.48C707.376 54.48 709.879 53.5883 711.686 51.6894L710.237 50.3106C708.898 51.7183 706.974 52.48 704.322 52.48V54.48ZM711.68 51.6954C713.511 49.8033 714.362 47.1897 714.362 44H712.362C712.362 46.8369 711.612 48.89 710.243 50.3046L711.68 51.6954ZM714.362 44C714.362 40.8103 713.511 38.1967 711.68 36.3046L710.243 37.6954C711.612 39.11 712.362 41.1631 712.362 44H714.362ZM711.686 36.3106C709.879 34.4117 707.376 33.52 704.322 33.52V35.52C706.974 35.52 708.898 36.2817 710.237 37.6894L711.686 36.3106ZM704.322 33.52C701.267 33.52 698.755 34.4119 696.923 36.3046L698.36 37.6954C699.728 36.2815 701.67 35.52 704.322 35.52V33.52ZM696.923 36.3046C695.092 38.1967 694.242 40.8103 694.242 44H696.242C696.242 41.1631 696.991 39.11 698.36 37.6954L696.923 36.3046ZM694.242 44C694.242 47.1897 695.092 49.8033 696.923 51.6954L698.36 50.3046C696.991 48.89 696.242 46.8369 696.242 44H694.242ZM696.923 51.6954C698.755 53.5881 701.267 54.48 704.322 54.48V52.48C701.67 52.48 699.728 51.7185 698.36 50.3046L696.923 51.6954ZM724.081 39.68L723.084 39.6112L723.01 40.68H724.081V39.68ZM726.361 33.68L727.139 34.3092L727.143 34.3032L726.361 33.68ZM731.761 29.76L732.136 30.687L732.142 30.6847L731.761 29.76ZM746.561 29.6L746.184 30.5259L746.184 30.5259L746.561 29.6ZM751.321 33.08L750.528 33.689L750.528 33.689L751.321 33.08ZM751.841 42.48L752.689 43.01L752.694 43.0022L751.841 42.48ZM748.041 46.32L748.635 47.1244L748.635 47.1244L748.041 46.32ZM741.201 50.4L740.747 49.5089L740.736 49.5147L741.201 50.4ZM732.521 54.96L731.541 55.16L731.808 56.4645L732.986 55.8453L732.521 54.96ZM732.121 53V52H730.897L731.141 53.2L732.121 53ZM753.881 53H754.881V52H753.881V53ZM753.881 59V60H754.881V59H753.881ZM724.601 59H723.601V60H724.601V59ZM724.601 53.72L724.103 52.8529L723.601 53.1412V53.72H724.601ZM737.481 46.32L736.985 45.4518L736.983 45.4529L737.481 46.32ZM742.281 43.32L742.866 44.1312L742.869 44.1287L742.281 43.32ZM744.761 40.96L743.929 40.4053L743.929 40.4053L744.761 40.96ZM744.761 36.36L743.934 36.9223L743.942 36.9334L743.95 36.9443L744.761 36.36ZM742.681 34.8L743.053 33.8715L743.053 33.8715L742.681 34.8ZM735.001 35L735.403 35.9156L735.413 35.9116L735.422 35.9073L735.001 35ZM732.561 36.96L733.402 37.5021L733.402 37.5021L732.561 36.96ZM731.601 39.68V40.68H732.499L732.595 39.7875L731.601 39.68ZM725.079 39.7488C725.226 37.6174 725.918 35.8172 727.138 34.3092L725.584 33.0508C724.085 34.9028 723.257 37.1026 723.084 39.6112L725.079 39.7488ZM727.143 34.3032C728.385 32.7451 730.038 31.5361 732.136 30.6869L731.386 28.8331C729.004 29.7972 727.058 31.2015 725.579 33.0568L727.143 34.3032ZM732.142 30.6847C734.27 29.8085 736.697 29.36 739.441 29.36V27.36C736.478 27.36 733.786 27.8448 731.38 28.8353L732.142 30.6847ZM739.441 29.36C742.062 29.36 744.302 29.7585 746.184 30.5259L746.939 28.6741C744.767 27.7882 742.26 27.36 739.441 27.36V29.36ZM746.184 30.5259C748.073 31.2967 749.506 32.3577 750.528 33.689L752.114 32.471C750.843 30.8156 749.103 29.5567 746.939 28.6741L746.184 30.5259ZM750.528 33.689C751.536 35.0014 752.041 36.5055 752.041 38.24H754.041C754.041 36.0811 753.4 34.1453 752.114 32.471L750.528 33.689ZM752.041 38.24C752.041 39.5742 751.693 40.807 750.988 41.9578L752.694 43.0022C753.59 41.5396 754.041 39.9458 754.041 38.24H752.041ZM750.993 41.95C750.282 43.0882 749.119 44.2809 747.447 45.5156L748.635 47.1244C750.43 45.7991 751.801 44.4318 752.689 43.01L750.993 41.95ZM747.447 45.5156C745.773 46.7515 743.546 48.0834 740.747 49.509L741.655 51.291C744.51 49.8366 746.842 48.4485 748.635 47.1244L747.447 45.5156ZM740.736 49.5147L732.056 54.0747L732.986 55.8453L741.666 51.2853L740.736 49.5147ZM733.501 54.76L733.101 52.8L731.141 53.2L731.541 55.16L733.501 54.76ZM732.121 54H753.881V52H732.121V54ZM752.881 53V59H754.881V53H752.881ZM753.881 58H724.601V60H753.881V58ZM725.601 59V53.72H723.601V59H725.601ZM725.099 54.5871L737.979 47.1871L736.983 45.4529L724.103 52.8529L725.099 54.5871ZM737.977 47.1882C740.044 46.0074 741.678 44.9875 742.866 44.1312L741.696 42.5088C740.591 43.3058 739.025 44.286 736.985 45.4518L737.977 47.1882ZM742.869 44.1287C744.083 43.2463 745.018 42.3776 745.593 41.5147L743.929 40.4053C743.544 40.9824 742.826 41.687 741.693 42.5113L742.869 44.1287ZM745.593 41.5147C746.177 40.6385 746.481 39.6736 746.481 38.64H744.481C744.481 39.2597 744.305 39.8415 743.929 40.4053L745.593 41.5147ZM746.481 38.64C746.481 37.5856 746.18 36.6195 745.573 35.7757L743.95 36.9443C744.302 37.4339 744.481 37.9877 744.481 38.64H746.481ZM745.588 35.7977C744.998 34.9298 744.125 34.3005 743.053 33.8715L742.31 35.7285C743.104 36.0462 743.618 36.4569 743.934 36.9223L745.588 35.7977ZM743.053 33.8715C741.964 33.4359 740.654 33.24 739.161 33.24V35.24C740.495 35.24 741.532 35.4174 742.31 35.7285L743.053 33.8715ZM739.161 33.24C737.39 33.24 735.847 33.5059 734.581 34.0927L735.422 35.9073C736.342 35.4808 737.573 35.24 739.161 35.24V33.24ZM734.599 34.0844C733.365 34.6262 732.381 35.3941 731.721 36.4179L733.402 37.5021C733.808 36.8726 734.451 36.3338 735.403 35.9156L734.599 34.0844ZM731.721 36.4179C731.102 37.3766 730.73 38.4324 730.607 39.5725L732.595 39.7875C732.686 38.9543 732.953 38.1967 733.402 37.5021L731.721 36.4179ZM731.601 38.68H724.081V40.68H731.601V38.68ZM757.571 38.6L756.573 38.5297L756.498 39.6H757.571V38.6ZM759.571 33.44L758.781 32.827L758.781 32.827L759.571 33.44ZM764.691 29.76L765.07 30.6854L765.076 30.6831L764.691 29.76ZM779.891 29.44L779.552 30.3809L779.56 30.3836L779.567 30.3862L779.891 29.44ZM784.611 32.36L783.865 33.0264L783.872 33.0343L784.611 32.36ZM785.051 40.44L784.246 39.8461L784.244 39.8495L785.051 40.44ZM781.251 43.08L781.597 44.0182L781.61 44.0133L781.251 43.08ZM774.611 44H773.611V44.9901L774.601 44.9999L774.611 44ZM774.611 43.2L774.559 42.2014L773.611 42.2507V43.2H774.611ZM785.211 55.12L785.982 55.7573L785.987 55.75L785.211 55.12ZM780.171 58.44L780.515 59.3791L780.521 59.3768L780.171 58.44ZM764.131 58.36L763.769 59.2923L763.782 59.2972L764.131 58.36ZM758.811 54.72L758.029 55.3431L758.035 55.3504L758.041 55.3576L758.811 54.72ZM756.771 49.2V48.2H755.719L755.772 49.2506L756.771 49.2ZM764.291 49.2L765.281 49.0561L765.156 48.2H764.291V49.2ZM766.531 52.6L766.001 53.448L766.011 53.4544L766.022 53.4606L766.531 52.6ZM777.451 52.72L777.951 53.5859L777.957 53.5824L777.451 52.72ZM778.691 47.88L777.906 48.4996L777.914 48.51L777.923 48.5202L778.691 47.88ZM776.651 46.72L776.383 47.6835L776.383 47.6835L776.651 46.72ZM767.451 46.32H766.451V47.32H767.451V46.32ZM767.451 41.16V40.16H766.451V41.16H767.451ZM777.331 40.24L777.891 41.0683L777.899 41.0627L777.908 41.057L777.331 40.24ZM777.091 35.16L776.583 36.0214L776.592 36.0269L777.091 35.16ZM767.251 35.36L766.731 34.5058L766.723 34.5109L767.251 35.36ZM765.091 38.6V39.6H765.935L766.077 38.7674L765.091 38.6ZM758.568 38.6702C758.687 36.9808 759.278 35.4485 760.361 34.053L758.781 32.827C757.464 34.5249 756.721 36.4325 756.573 38.5297L758.568 38.6702ZM760.361 34.053C761.432 32.6723 762.983 31.5403 765.07 30.6854L764.312 28.8346C761.972 29.793 760.11 31.1144 758.781 32.827L760.361 34.053ZM765.076 30.6831C767.163 29.8132 769.719 29.36 772.771 29.36V27.36C769.53 27.36 766.699 27.8402 764.306 28.8369L765.076 30.6831ZM772.771 29.36C775.434 29.36 777.687 29.7095 779.552 30.3809L780.23 28.4991C778.094 27.7305 775.601 27.36 772.771 27.36V29.36ZM779.567 30.3862C781.475 31.0389 782.887 31.9314 783.865 33.0263L785.357 31.6937C784.095 30.2819 782.36 29.2278 780.215 28.4938L779.567 30.3862ZM783.872 33.0343C784.822 34.0744 785.291 35.2864 785.291 36.72H787.291C787.291 34.7936 786.64 33.099 785.349 31.6857L783.872 33.0343ZM785.291 36.72C785.291 37.8609 784.949 38.8938 784.246 39.8461L785.855 41.0339C786.806 39.7462 787.291 38.2991 787.291 36.72H785.291ZM784.244 39.8495C783.592 40.7404 782.51 41.5242 780.892 42.1467L781.61 44.0133C783.458 43.3025 784.91 42.3263 785.858 41.0305L784.244 39.8495ZM780.905 42.1419C779.325 42.7252 777.243 43.026 774.621 43L774.601 44.9999C777.365 45.0273 779.71 44.7148 781.597 44.0181L780.905 42.1419ZM775.611 44V43.2H773.611V44H775.611ZM774.663 44.1986C777.15 44.0691 779.237 44.2538 780.945 44.7241L781.476 42.7959C779.505 42.2529 777.192 42.0642 774.559 42.2014L774.663 44.1986ZM780.945 44.7241C782.655 45.1949 783.882 45.9144 784.709 46.83L786.193 45.49C785.046 44.2189 783.447 43.3384 781.476 42.7959L780.945 44.7241ZM784.709 46.83C785.509 47.7167 785.931 48.8415 785.931 50.28H787.931C787.931 48.4118 787.366 46.79 786.193 45.49L784.709 46.83ZM785.931 50.28C785.931 51.863 785.437 53.2541 784.434 54.49L785.987 55.75C787.278 54.1593 787.931 52.3237 787.931 50.28H785.931ZM784.44 54.4827C783.435 55.6986 781.92 56.7192 779.821 57.5032L780.521 59.3768C782.848 58.5075 784.694 57.3147 785.982 55.7573L784.44 54.4827ZM779.827 57.5009C777.782 58.2492 775.239 58.64 772.171 58.64V60.64C775.396 60.64 778.187 60.2308 780.515 59.3791L779.827 57.5009ZM772.171 58.64C769.194 58.64 766.637 58.2256 764.48 57.4228L763.782 59.2972C766.211 60.2011 769.014 60.64 772.171 60.64V58.64ZM764.493 57.4278C762.352 56.5966 760.732 55.4725 759.581 54.0824L758.041 55.3576C759.45 57.0608 761.377 58.3634 763.769 59.2922L764.493 57.4278ZM759.593 54.0969C758.477 52.6954 757.866 51.0581 757.77 49.1494L755.772 49.2506C755.889 51.5552 756.639 53.598 758.029 55.3431L759.593 54.0969ZM756.771 50.2H764.291V48.2H756.771V50.2ZM763.301 49.3439C763.558 51.1076 764.477 52.4956 766.001 53.448L767.061 51.752C766.025 51.1044 765.451 50.2258 765.281 49.0561L763.301 49.3439ZM766.022 53.4606C767.55 54.3651 769.638 54.76 772.171 54.76V52.76C769.797 52.76 768.125 52.3815 767.04 51.7394L766.022 53.4606ZM772.171 54.76C774.562 54.76 776.529 54.4078 777.951 53.5859L776.951 51.8541C775.973 52.4189 774.42 52.76 772.171 52.76V54.76ZM777.957 53.5824C779.449 52.7069 780.291 51.3998 780.291 49.72H778.291C778.291 50.6002 777.906 51.2931 776.945 51.8576L777.957 53.5824ZM780.291 49.72C780.291 48.787 780.037 47.933 779.459 47.2398L777.923 48.5202C778.145 48.787 778.291 49.1597 778.291 49.72H780.291ZM779.476 47.2604C778.89 46.5186 777.979 46.051 776.919 45.7565L776.383 47.6835C777.243 47.9223 777.692 48.2281 777.906 48.4996L779.476 47.2604ZM776.919 45.7565C775.831 45.4544 774.394 45.32 772.651 45.32V47.32C774.322 47.32 775.551 47.4523 776.383 47.6835L776.919 45.7565ZM772.651 45.32H767.451V47.32H772.651V45.32ZM768.451 46.32V41.16H766.451V46.32H768.451ZM767.451 42.16H772.651V40.16H767.451V42.16ZM772.651 42.16C774.896 42.16 776.72 41.8605 777.891 41.0683L776.771 39.4117C776.128 39.8462 774.833 40.16 772.651 40.16V42.16ZM777.908 41.057C779.05 40.2504 779.691 39.1328 779.691 37.76H777.691C777.691 38.4139 777.425 38.9496 776.754 39.423L777.908 41.057ZM779.691 37.76C779.691 36.2412 778.929 35.0635 777.589 34.2931L776.592 36.0269C777.386 36.4832 777.691 37.0388 777.691 37.76H779.691ZM777.599 34.2986C776.329 33.5497 774.54 33.24 772.371 33.24V35.24C774.415 35.24 775.773 35.5436 776.583 36.0214L777.599 34.2986ZM772.371 33.24C770.089 33.24 768.176 33.6263 766.731 34.5058L767.771 36.2142C768.779 35.6003 770.279 35.24 772.371 35.24V33.24ZM766.723 34.5109C765.276 35.4113 764.392 36.7416 764.105 38.4326L766.077 38.7674C766.27 37.6317 766.826 36.802 767.779 36.2091L766.723 34.5109ZM765.091 37.6H757.571V39.6H765.091V37.6Z" fill="#FFEB1C" mask="url(#path-6-outside-3_2204_195)"/>
<mask id="path-8-outside-4_2204_195" maskUnits="userSpaceOnUse" x="813.032" y="27" width="364" height="34" fill="black">
<rect fill="white" x="813.032" y="27" width="364" height="34"/>
<path d="M835.752 44.28L836.392 42.8C838.739 42.8533 840.659 43.2133 842.152 43.88C843.672 44.5467 844.792 45.4667 845.512 46.64C846.259 47.7867 846.632 49.12 846.632 50.64C846.632 52.24 846.259 53.68 845.512 54.96C844.765 56.2133 843.645 57.2 842.152 57.92C840.685 58.64 838.845 59 836.632 59H815.032L817.352 43.6L815.032 29H835.872C838.645 29 840.792 29.6533 842.312 30.96C843.859 32.24 844.632 34.0133 844.632 36.28C844.632 37.5333 844.339 38.7333 843.752 39.88C843.165 41.0267 842.232 42 840.952 42.8C839.672 43.5733 837.939 44.0667 835.752 44.28ZM822.472 57.16L819.592 53.6H834.832C836.139 53.6 837.152 53.2933 837.872 52.68C838.619 52.04 838.992 51.1467 838.992 50C838.992 48.8533 838.579 47.9467 837.752 47.28C836.952 46.5867 835.752 46.24 834.152 46.24H821.672V40.96H833.192C834.285 40.96 835.192 40.6533 835.912 40.04C836.632 39.4 836.992 38.5333 836.992 37.44C836.992 36.56 836.685 35.84 836.072 35.28C835.459 34.6933 834.565 34.4 833.392 34.4H819.632L822.472 30.84L824.592 43.6L822.472 57.16ZM858.473 29V55.64L855.073 52.32H877.553V59H850.913V29H858.473ZM886.586 52.96V46.88H907.306V52.96H886.586ZM902.026 29L915.866 59H907.826L895.946 32.16H898.266L886.426 59H878.386L892.226 29H902.026ZM950.083 46.6C949.789 49.1867 948.896 51.4667 947.403 53.44C945.909 55.3867 943.936 56.9067 941.483 58C939.029 59.0933 936.229 59.64 933.083 59.64C929.643 59.64 926.616 58.9867 924.003 57.68C921.416 56.3733 919.403 54.5467 917.963 52.2C916.523 49.8533 915.803 47.12 915.803 44C915.803 40.88 916.523 38.1467 917.963 35.8C919.403 33.4533 921.416 31.6267 924.003 30.32C926.616 29.0133 929.643 28.36 933.083 28.36C936.229 28.36 939.029 28.9067 941.483 30C943.936 31.0933 945.909 32.6133 947.403 34.56C948.896 36.5067 949.789 38.7867 950.083 41.4H942.483C942.216 40.04 941.669 38.88 940.843 37.92C940.043 36.96 938.976 36.2267 937.643 35.72C936.336 35.1867 934.816 34.92 933.083 34.92C931.083 34.92 929.363 35.2933 927.923 36.04C926.483 36.76 925.376 37.8 924.603 39.16C923.829 40.52 923.443 42.1333 923.443 44C923.443 45.8667 923.829 47.48 924.603 48.84C925.376 50.2 926.483 51.2533 927.923 52C929.363 52.72 931.083 53.08 933.083 53.08C934.816 53.08 936.336 52.8267 937.643 52.32C938.976 51.8133 940.043 51.08 940.843 50.12C941.669 49.16 942.216 47.9867 942.483 46.6H950.083ZM954.311 59V29H961.831V52.96L959.791 51.4L977.551 29H985.551L961.111 59H954.311ZM968.671 44.48L974.111 39.8L985.951 59H977.391L968.671 44.48ZM1001.78 41.48H1023.5V47.92H1001.78V41.48ZM1024.22 29V35.44H1001.94L1005.66 31.72V59H998.1V29H1024.22ZM1033.85 42.2H1045.09C1046.5 42.2 1047.62 41.88 1048.45 41.24C1049.27 40.5733 1049.69 39.6533 1049.69 38.48C1049.69 37.3067 1049.27 36.4 1048.45 35.76C1047.62 35.0933 1046.5 34.76 1045.09 34.76H1032.77L1036.17 31.04V59H1028.61V29H1046.09C1048.33 29 1050.29 29.4 1051.97 30.2C1053.65 31 1054.95 32.1067 1055.89 33.52C1056.82 34.9333 1057.29 36.5867 1057.29 38.48C1057.29 40.3467 1056.82 41.9867 1055.89 43.4C1054.95 44.8133 1053.65 45.92 1051.97 46.72C1050.29 47.4933 1048.33 47.88 1046.09 47.88H1033.85V42.2ZM1038.69 44.96H1047.21L1058.25 59H1049.49L1038.69 44.96ZM1062.2 29H1069.76V59H1062.2V29ZM1090.24 29C1093.76 29 1096.84 29.6267 1099.48 30.88C1102.12 32.1333 1104.17 33.88 1105.64 36.12C1107.13 38.36 1107.88 40.9867 1107.88 44C1107.88 46.9867 1107.13 49.6133 1105.64 51.88C1104.17 54.12 1102.12 55.8667 1099.48 57.12C1096.84 58.3733 1093.76 59 1090.24 59H1075.6V29H1090.24ZM1083.12 55.92L1079.44 52.32H1090.8C1092.72 52.32 1094.39 51.9733 1095.8 51.28C1097.21 50.5867 1098.31 49.6267 1099.08 48.4C1099.85 47.1467 1100.24 45.68 1100.24 44C1100.24 42.2933 1099.85 40.8267 1099.08 39.6C1098.31 38.3733 1097.21 37.4133 1095.8 36.72C1094.39 36.0267 1092.72 35.68 1090.8 35.68H1079.44L1083.12 32.08V55.92ZM1115.88 52.96V46.88H1136.6V52.96H1115.88ZM1131.32 29L1145.16 59H1137.12L1125.24 32.16H1127.56L1115.72 59H1107.68L1121.52 29H1131.32ZM1153.41 59V44.48H1160.97V59H1153.41ZM1139.33 29H1147.69L1158.89 43.24H1155.41L1166.61 29H1174.97L1159.61 48.52L1154.73 48.6L1139.33 29Z"/>
</mask>
<path d="M835.752 44.28L834.834 43.8831L834.161 45.44L835.849 45.2753L835.752 44.28ZM836.392 42.8L836.415 41.8003L835.741 41.785L835.474 42.4031L836.392 42.8ZM842.152 43.88L841.744 44.7932L841.75 44.7958L842.152 43.88ZM845.512 46.64L844.66 47.163L844.667 47.1744L844.674 47.1857L845.512 46.64ZM845.512 54.96L846.371 55.4718L846.376 55.4639L845.512 54.96ZM842.152 57.92L841.718 57.0192L841.711 57.0223L842.152 57.92ZM815.032 59L814.043 58.851L813.87 60H815.032V59ZM817.352 43.6L818.341 43.749L818.364 43.5959L818.339 43.4431L817.352 43.6ZM815.032 29V28H813.86L814.044 29.1569L815.032 29ZM842.312 30.96L841.66 31.7183L841.667 31.7244L841.674 31.7304L842.312 30.96ZM843.752 39.88L842.862 39.4245L842.862 39.4245L843.752 39.88ZM840.952 42.8L841.469 43.6559L841.475 43.652L841.482 43.648L840.952 42.8ZM822.472 57.16L821.694 57.7889L823.112 59.541L823.46 57.3145L822.472 57.16ZM819.592 53.6V52.6H817.497L818.814 54.2289L819.592 53.6ZM837.872 52.68L838.52 53.4412L838.523 53.4393L837.872 52.68ZM837.752 47.28L837.097 48.0357L837.11 48.0473L837.124 48.0584L837.752 47.28ZM821.672 46.24H820.672V47.24H821.672V46.24ZM821.672 40.96V39.96H820.672V40.96H821.672ZM835.912 40.04L836.56 40.8012L836.568 40.7944L836.576 40.7874L835.912 40.04ZM836.072 35.28L835.381 36.0026L835.389 36.0107L835.398 36.0185L836.072 35.28ZM819.632 34.4L818.85 33.7764L817.555 35.4H819.632V34.4ZM822.472 30.84L823.458 30.6761L823.09 28.4612L821.69 30.2164L822.472 30.84ZM824.592 43.6L825.58 43.7545L825.605 43.5952L825.578 43.4361L824.592 43.6ZM836.67 44.6769L837.31 43.1969L835.474 42.4031L834.834 43.8831L836.67 44.6769ZM836.369 43.7997C838.636 43.8513 840.413 44.1988 841.744 44.7931L842.56 42.9669C840.904 42.2279 838.841 41.8554 836.415 41.8003L836.369 43.7997ZM841.75 44.7958C843.123 45.3977 844.067 46.1966 844.66 47.163L846.364 46.117C845.517 44.7367 844.221 43.6956 842.554 42.9642L841.75 44.7958ZM844.674 47.1857C845.303 48.1523 845.632 49.2915 845.632 50.64H847.632C847.632 48.9485 847.214 47.421 846.35 46.0943L844.674 47.1857ZM845.632 50.64C845.632 52.0775 845.298 53.3412 844.648 54.4561L846.376 55.4639C847.219 54.0188 847.632 52.4025 847.632 50.64H845.632ZM844.653 54.4482C844.02 55.5108 843.059 56.3724 841.718 57.0192L842.586 58.8208C844.231 58.0276 845.511 56.9159 846.371 55.4718L844.653 54.4482ZM841.711 57.0223C840.421 57.6555 838.744 58 836.632 58V60C838.947 60 840.949 59.6245 842.593 58.8177L841.711 57.0223ZM836.632 58H815.032V60H836.632V58ZM816.021 59.149L818.341 43.749L816.363 43.451L814.043 58.851L816.021 59.149ZM818.339 43.4431L816.019 28.8431L814.044 29.1569L816.364 43.7569L818.339 43.4431ZM815.032 30H835.872V28H815.032V30ZM835.872 30C838.497 30 840.38 30.6184 841.66 31.7183L842.964 30.2017C841.203 28.6883 838.793 28 835.872 28V30ZM841.674 31.7304C842.96 32.7945 843.632 34.268 843.632 36.28H845.632C845.632 33.7586 844.757 31.6855 842.949 30.1896L841.674 31.7304ZM843.632 36.28C843.632 37.3705 843.378 38.4148 842.862 39.4245L844.642 40.3355C845.299 39.0519 845.632 37.6962 845.632 36.28H843.632ZM842.862 39.4245C842.371 40.3843 841.575 41.2312 840.422 41.952L841.482 43.648C842.889 42.7688 843.96 41.669 844.642 40.3355L842.862 39.4245ZM840.435 41.9441C839.328 42.6126 837.757 43.0796 835.655 43.2847L835.849 45.2753C838.12 45.0537 840.016 44.534 841.469 43.6559L840.435 41.9441ZM823.249 56.5311L820.369 52.9711L818.814 54.2289L821.694 57.7889L823.249 56.5311ZM819.592 54.6H834.832V52.6H819.592V54.6ZM834.832 54.6C836.286 54.6 837.561 54.2586 838.52 53.4412L837.223 51.9188C836.743 52.3281 835.991 52.6 834.832 52.6V54.6ZM838.523 53.4393C839.529 52.5769 839.992 51.3849 839.992 50H837.992C837.992 50.9084 837.708 51.5031 837.221 51.9207L838.523 53.4393ZM839.992 50C839.992 48.5785 839.462 47.3748 838.38 46.5016L837.124 48.0584C837.695 48.5186 837.992 49.1281 837.992 50H839.992ZM838.407 46.5243C837.352 45.61 835.874 45.24 834.152 45.24V47.24C835.63 47.24 836.552 47.5633 837.097 48.0357L838.407 46.5243ZM834.152 45.24H821.672V47.24H834.152V45.24ZM822.672 46.24V40.96H820.672V46.24H822.672ZM821.672 41.96H833.192V39.96H821.672V41.96ZM833.192 41.96C834.484 41.96 835.632 41.5923 836.56 40.8012L835.263 39.2788C834.752 39.7143 834.087 39.96 833.192 39.96V41.96ZM836.576 40.7874C837.54 39.931 837.992 38.7762 837.992 37.44H835.992C835.992 38.2905 835.724 38.869 835.247 39.2926L836.576 40.7874ZM837.992 37.44C837.992 36.2979 837.581 35.3033 836.746 34.5415L835.398 36.0185C835.79 36.3767 835.992 36.8221 835.992 37.44H837.992ZM836.763 34.5574C835.902 33.734 834.723 33.4 833.392 33.4V35.4C834.407 35.4 835.015 35.6527 835.381 36.0026L836.763 34.5574ZM833.392 33.4H819.632V35.4H833.392V33.4ZM820.414 35.0236L823.254 31.4636L821.69 30.2164L818.85 33.7764L820.414 35.0236ZM821.485 31.0039L823.605 43.7639L825.578 43.4361L823.458 30.6761L821.485 31.0039ZM823.604 43.4455L821.484 57.0055L823.46 57.3145L825.58 43.7545L823.604 43.4455ZM858.473 29H859.473V28H858.473V29ZM858.473 55.64L857.774 56.3555L859.473 58.0141V55.64H858.473ZM855.073 52.32V51.32H852.617L854.374 53.0355L855.073 52.32ZM877.553 52.32H878.553V51.32H877.553V52.32ZM877.553 59V60H878.553V59H877.553ZM850.913 59H849.913V60H850.913V59ZM850.913 29V28H849.913V29H850.913ZM857.473 29V55.64H859.473V29H857.473ZM859.171 54.9245L855.771 51.6045L854.374 53.0355L857.774 56.3555L859.171 54.9245ZM855.073 53.32H877.553V51.32H855.073V53.32ZM876.553 52.32V59H878.553V52.32H876.553ZM877.553 58H850.913V60H877.553V58ZM851.913 59V29H849.913V59H851.913ZM850.913 30H858.473V28H850.913V30ZM886.586 52.96H885.586V53.96H886.586V52.96ZM886.586 46.88V45.88H885.586V46.88H886.586ZM907.306 46.88H908.306V45.88H907.306V46.88ZM907.306 52.96V53.96H908.306V52.96H907.306ZM902.026 29L902.934 28.5811L902.666 28H902.026V29ZM915.866 59V60H917.429L916.774 58.5811L915.866 59ZM907.826 59L906.912 59.4047L907.175 60H907.826V59ZM895.946 32.16V31.16H894.41L895.032 32.5647L895.946 32.16ZM898.266 32.16L899.181 32.5636L899.8 31.16H898.266V32.16ZM886.426 59V60H887.078L887.341 59.4036L886.426 59ZM878.386 59L877.478 58.5811L876.824 60H878.386V59ZM892.226 29V28H891.586L891.318 28.5811L892.226 29ZM887.586 52.96V46.88H885.586V52.96H887.586ZM886.586 47.88H907.306V45.88H886.586V47.88ZM906.306 46.88V52.96H908.306V46.88H906.306ZM907.306 51.96H886.586V53.96H907.306V51.96ZM901.118 29.4189L914.958 59.4189L916.774 58.5811L902.934 28.5811L901.118 29.4189ZM915.866 58H907.826V60H915.866V58ZM908.741 58.5953L896.861 31.7553L895.032 32.5647L906.912 59.4047L908.741 58.5953ZM895.946 33.16H898.266V31.16H895.946V33.16ZM897.351 31.7564L885.511 58.5964L887.341 59.4036L899.181 32.5636L897.351 31.7564ZM886.426 58H878.386V60H886.426V58ZM879.294 59.4189L893.134 29.4189L891.318 28.5811L877.478 58.5811L879.294 59.4189ZM892.226 30H902.026V28H892.226V30ZM950.083 46.6L951.076 46.7127L951.203 45.6H950.083V46.6ZM947.403 53.44L948.196 54.0487L948.2 54.0434L947.403 53.44ZM941.483 58L941.076 57.0866L941.076 57.0866L941.483 58ZM924.003 57.68L923.552 58.5726L923.556 58.5744L924.003 57.68ZM917.963 52.2L917.11 52.723L917.11 52.723L917.963 52.2ZM917.963 35.8L917.11 35.277L917.11 35.277L917.963 35.8ZM924.003 30.32L923.556 29.4256L923.552 29.4274L924.003 30.32ZM947.403 34.56L946.609 35.1687L946.609 35.1687L947.403 34.56ZM950.083 41.4V42.4H951.201L951.077 41.2885L950.083 41.4ZM942.483 41.4L941.501 41.5924L941.66 42.4H942.483V41.4ZM940.843 37.92L940.075 38.5602L940.08 38.5664L940.085 38.5725L940.843 37.92ZM937.643 35.72L937.265 36.6458L937.276 36.6505L937.288 36.6548L937.643 35.72ZM927.923 36.04L928.37 36.9344L928.377 36.9311L928.383 36.9278L927.923 36.04ZM924.603 39.16L925.472 39.6543L925.472 39.6543L924.603 39.16ZM924.603 48.84L923.734 49.3343L923.734 49.3343L924.603 48.84ZM927.923 52L927.462 52.8878L927.469 52.8911L927.476 52.8944L927.923 52ZM937.643 52.32L937.288 51.3852L937.281 51.3876L937.643 52.32ZM940.843 50.12L940.085 49.4675L940.08 49.4736L940.075 49.4798L940.843 50.12ZM942.483 46.6V45.6H941.657L941.501 46.4112L942.483 46.6ZM949.089 46.4873C948.815 48.9054 947.985 51.0138 946.605 52.8366L948.2 54.0434C949.807 51.9195 950.764 49.4679 951.076 46.7127L949.089 46.4873ZM946.609 52.8313C945.227 54.6336 943.392 56.0545 941.076 57.0866L941.89 58.9134C944.481 57.7588 946.592 56.1398 948.196 54.0487L946.609 52.8313ZM941.076 57.0866C938.771 58.1139 936.113 58.64 933.083 58.64V60.64C936.346 60.64 939.288 60.0728 941.89 58.9134L941.076 57.0866ZM933.083 58.64C929.771 58.64 926.902 58.0115 924.45 56.7856L923.556 58.5744C926.33 59.9618 929.515 60.64 933.083 60.64V58.64ZM924.454 56.7874C922.023 55.5598 920.153 53.8572 918.815 51.677L917.11 52.723C918.653 55.2362 920.809 57.1869 923.552 58.5726L924.454 56.7874ZM918.815 51.677C917.484 49.5078 916.803 46.9606 916.803 44H914.803C914.803 47.2794 915.562 50.1988 917.11 52.723L918.815 51.677ZM916.803 44C916.803 41.0394 917.484 38.4922 918.815 36.323L917.11 35.277C915.562 37.8012 914.803 40.7206 914.803 44H916.803ZM918.815 36.323C920.153 34.1428 922.023 32.4402 924.454 31.2126L923.552 29.4274C920.809 30.8131 918.653 32.7638 917.11 35.277L918.815 36.323ZM924.45 31.2144C926.902 29.9885 929.771 29.36 933.083 29.36V27.36C929.515 27.36 926.33 28.0382 923.556 29.4256L924.45 31.2144ZM933.083 29.36C936.113 29.36 938.771 29.8861 941.076 30.9134L941.89 29.0866C939.288 27.9272 936.346 27.36 933.083 27.36V29.36ZM941.076 30.9134C943.392 31.9455 945.227 33.3664 946.609 35.1687L948.196 33.9513C946.592 31.8602 944.481 30.2412 941.89 29.0866L941.076 30.9134ZM946.609 35.1687C947.984 36.9605 948.814 39.0656 949.089 41.5115L951.077 41.2885C950.764 38.5078 949.808 36.0528 948.196 33.9513L946.609 35.1687ZM950.083 40.4H942.483V42.4H950.083V40.4ZM943.464 41.2076C943.167 39.6939 942.551 38.371 941.601 37.2675L940.085 38.5725C940.788 39.389 941.265 40.3861 941.501 41.5924L943.464 41.2076ZM941.611 37.2798C940.686 36.17 939.469 35.3442 937.998 34.7852L937.288 36.6548C938.483 37.1091 939.399 37.75 940.075 38.5602L941.611 37.2798ZM938.021 34.7942C936.57 34.2021 934.917 33.92 933.083 33.92V35.92C934.715 35.92 936.102 36.1713 937.265 36.6458L938.021 34.7942ZM933.083 33.92C930.959 33.92 929.074 34.3166 927.462 35.1522L928.383 36.9278C929.652 36.2701 931.206 35.92 933.083 35.92V33.92ZM927.476 35.1456C925.864 35.9515 924.608 37.1282 923.734 38.6657L925.472 39.6543C926.145 38.4718 927.102 37.5685 928.37 36.9344L927.476 35.1456ZM923.734 38.6657C922.859 40.203 922.443 41.9935 922.443 44H924.443C924.443 42.2731 924.8 40.837 925.472 39.6543L923.734 38.6657ZM922.443 44C922.443 46.0065 922.859 47.797 923.734 49.3343L925.472 48.3457C924.8 47.163 924.443 45.7269 924.443 44H922.443ZM923.734 49.3343C924.606 50.8686 925.858 52.0556 927.462 52.8878L928.383 51.1122C927.108 50.451 926.146 49.5314 925.472 48.3457L923.734 49.3343ZM927.476 52.8944C929.084 53.6986 930.964 54.08 933.083 54.08V52.08C931.201 52.08 929.642 51.7414 928.37 51.1056L927.476 52.8944ZM933.083 54.08C934.912 54.08 936.559 53.8129 938.004 53.2524L937.281 51.3876C936.114 51.8404 934.721 52.08 933.083 52.08V54.08ZM937.998 53.2548C939.469 52.6958 940.686 51.87 941.611 50.7602L940.075 49.4798C939.399 50.29 938.483 50.9309 937.288 51.3852L937.998 53.2548ZM941.601 50.7725C942.554 49.6655 943.169 48.3269 943.465 46.7888L941.501 46.4112C941.263 47.6464 940.785 48.6545 940.085 49.4675L941.601 50.7725ZM942.483 47.6H950.083V45.6H942.483V47.6ZM954.311 59H953.311V60H954.311V59ZM954.311 29V28H953.311V29H954.311ZM961.831 29H962.831V28H961.831V29ZM961.831 52.96L961.224 53.7544L962.831 54.9836V52.96H961.831ZM959.791 51.4L959.008 50.7787L958.375 51.5762L959.184 52.1944L959.791 51.4ZM977.551 29V28H977.068L976.768 28.3787L977.551 29ZM985.551 29L986.327 29.6316L987.656 28H985.551V29ZM961.111 59V60H961.586L961.887 59.6316L961.111 59ZM968.671 44.48L968.019 43.7219L967.38 44.2719L967.814 44.9948L968.671 44.48ZM974.111 39.8L974.962 39.2751L974.347 38.2777L973.459 39.0419L974.111 39.8ZM985.951 59V60H987.743L986.802 58.4751L985.951 59ZM977.391 59L976.534 59.5148L976.825 60H977.391V59ZM955.311 59V29H953.311V59H955.311ZM954.311 30H961.831V28H954.311V30ZM960.831 29V52.96H962.831V29H960.831ZM962.439 52.1656L960.399 50.6056L959.184 52.1944L961.224 53.7544L962.439 52.1656ZM960.575 52.0213L978.335 29.6213L976.768 28.3787L959.008 50.7787L960.575 52.0213ZM977.551 30H985.551V28H977.551V30ZM984.776 28.3684L960.336 58.3684L961.887 59.6316L986.327 29.6316L984.776 28.3684ZM961.111 58H954.311V60H961.111V58ZM969.323 45.2381L974.763 40.5581L973.459 39.0419L968.019 43.7219L969.323 45.2381ZM973.26 40.3249L985.1 59.5249L986.802 58.4751L974.962 39.2751L973.26 40.3249ZM985.951 58H977.391V60H985.951V58ZM978.249 58.4852L969.529 43.9652L967.814 44.9948L976.534 59.5148L978.249 58.4852ZM1001.78 41.48V40.48H1000.78V41.48H1001.78ZM1023.5 41.48H1024.5V40.48H1023.5V41.48ZM1023.5 47.92V48.92H1024.5V47.92H1023.5ZM1001.78 47.92H1000.78V48.92H1001.78V47.92ZM1024.22 29H1025.22V28H1024.22V29ZM1024.22 35.44V36.44H1025.22V35.44H1024.22ZM1001.94 35.44L1001.23 34.7329L999.526 36.44H1001.94V35.44ZM1005.66 31.72H1006.66V29.3058L1004.95 31.0129L1005.66 31.72ZM1005.66 59V60H1006.66V59H1005.66ZM998.1 59H997.1V60H998.1V59ZM998.1 29V28H997.1V29H998.1ZM1001.78 42.48H1023.5V40.48H1001.78V42.48ZM1022.5 41.48V47.92H1024.5V41.48H1022.5ZM1023.5 46.92H1001.78V48.92H1023.5V46.92ZM1002.78 47.92V41.48H1000.78V47.92H1002.78ZM1023.22 29V35.44H1025.22V29H1023.22ZM1024.22 34.44H1001.94V36.44H1024.22V34.44ZM1002.65 36.1471L1006.37 32.4271L1004.95 31.0129L1001.23 34.7329L1002.65 36.1471ZM1004.66 31.72V59H1006.66V31.72H1004.66ZM1005.66 58H998.1V60H1005.66V58ZM999.1 59V29H997.1V59H999.1ZM998.1 30H1024.22V28H998.1V30ZM1033.85 42.2V41.2H1032.85V42.2H1033.85ZM1048.45 41.24L1049.06 42.0307L1049.07 42.0246L1049.08 42.0184L1048.45 41.24ZM1048.45 35.76L1047.82 36.5384L1047.83 36.5446L1047.84 36.5507L1048.45 35.76ZM1032.77 34.76L1032.03 34.0854L1030.5 35.76H1032.77V34.76ZM1036.17 31.04H1037.17V28.4636L1035.43 30.3654L1036.17 31.04ZM1036.17 59V60H1037.17V59H1036.17ZM1028.61 59H1027.61V60H1028.61V59ZM1028.61 29V28H1027.61V29H1028.61ZM1051.97 30.2L1051.54 31.1029L1051.54 31.1029L1051.97 30.2ZM1055.89 33.52L1056.72 32.9689L1056.72 32.9689L1055.89 33.52ZM1055.89 43.4L1056.72 43.9511L1056.72 43.9511L1055.89 43.4ZM1051.97 46.72L1052.39 47.6285L1052.4 47.6229L1051.97 46.72ZM1033.85 47.88H1032.85V48.88H1033.85V47.88ZM1038.69 44.96V43.96H1036.66L1037.9 45.5697L1038.69 44.96ZM1047.21 44.96L1047.99 44.3419L1047.69 43.96H1047.21V44.96ZM1058.25 59V60H1060.31L1059.03 58.3819L1058.25 59ZM1049.49 59L1048.7 59.6097L1049 60H1049.49V59ZM1033.85 43.2H1045.09V41.2H1033.85V43.2ZM1045.09 43.2C1046.65 43.2 1048.01 42.8472 1049.06 42.0307L1047.84 40.4493C1047.24 40.9128 1046.36 41.2 1045.09 41.2V43.2ZM1049.08 42.0184C1050.16 41.1404 1050.69 39.9197 1050.69 38.48H1048.69C1048.69 39.387 1048.38 40.0063 1047.82 40.4616L1049.08 42.0184ZM1050.69 38.48C1050.69 37.0405 1050.16 35.8236 1049.06 34.9693L1047.84 36.5507C1048.39 36.9764 1048.69 37.5729 1048.69 38.48H1050.69ZM1049.08 34.9816C1048.02 34.1303 1046.65 33.76 1045.09 33.76V35.76C1046.35 35.76 1047.22 36.0564 1047.82 36.5384L1049.08 34.9816ZM1045.09 33.76H1032.77V35.76H1045.09V33.76ZM1033.51 35.4346L1036.91 31.7146L1035.43 30.3654L1032.03 34.0854L1033.51 35.4346ZM1035.17 31.04V59H1037.17V31.04H1035.17ZM1036.17 58H1028.61V60H1036.17V58ZM1029.61 59V29H1027.61V59H1029.61ZM1028.61 30H1046.09V28H1028.61V30ZM1046.09 30C1048.21 30 1050.02 30.3785 1051.54 31.1029L1052.4 29.2971C1050.56 28.4215 1048.45 28 1046.09 28V30ZM1051.54 31.1029C1053.07 31.8326 1054.23 32.8244 1055.05 34.0711L1056.72 32.9689C1055.68 31.389 1054.23 30.1674 1052.4 29.2971L1051.54 31.1029ZM1055.05 34.0711C1055.87 35.302 1056.29 36.7587 1056.29 38.48H1058.29C1058.29 36.4146 1057.78 34.5647 1056.72 32.9689L1055.05 34.0711ZM1056.29 38.48C1056.29 40.1715 1055.87 41.6156 1055.05 42.8489L1056.72 43.9511C1057.77 42.3577 1058.29 40.5218 1058.29 38.48H1056.29ZM1055.05 42.8489C1054.23 44.0956 1053.07 45.0874 1051.54 45.8171L1052.4 47.6229C1054.23 46.7526 1055.68 45.531 1056.72 43.9511L1055.05 42.8489ZM1051.55 45.8116C1050.03 46.5132 1048.21 46.88 1046.09 46.88V48.88C1048.44 48.88 1050.55 48.4734 1052.39 47.6284L1051.55 45.8116ZM1046.09 46.88H1033.85V48.88H1046.09V46.88ZM1034.85 47.88V42.2H1032.85V47.88H1034.85ZM1038.69 45.96H1047.21V43.96H1038.69V45.96ZM1046.42 45.5781L1057.46 59.6181L1059.03 58.3819L1047.99 44.3419L1046.42 45.5781ZM1058.25 58H1049.49V60H1058.25V58ZM1050.28 58.3903L1039.48 44.3503L1037.9 45.5697L1048.7 59.6097L1050.28 58.3903ZM1062.2 29V28H1061.2V29H1062.2ZM1069.76 29H1070.76V28H1069.76V29ZM1069.76 59V60H1070.76V59H1069.76ZM1062.2 59H1061.2V60H1062.2V59ZM1062.2 30H1069.76V28H1062.2V30ZM1068.76 29V59H1070.76V29H1068.76ZM1069.76 58H1062.2V60H1069.76V58ZM1063.2 59V29H1061.2V59H1063.2ZM1099.48 30.88L1099.05 31.7834L1099.05 31.7834L1099.48 30.88ZM1105.64 36.12L1104.8 36.6678L1104.81 36.6747L1105.64 36.12ZM1105.64 51.88L1104.81 51.3298L1104.8 51.3322L1105.64 51.88ZM1099.48 57.12L1099.05 56.2166L1099.05 56.2166L1099.48 57.12ZM1075.6 59H1074.6V60H1075.6V59ZM1075.6 29V28H1074.6V29H1075.6ZM1083.12 55.92L1082.42 56.6348L1084.12 58.2972V55.92H1083.12ZM1079.44 52.32V51.32H1076.99L1078.74 53.0348L1079.44 52.32ZM1095.8 51.28L1095.36 50.3822L1095.36 50.3822L1095.8 51.28ZM1099.08 48.4L1099.93 48.9333L1099.93 48.9251L1099.08 48.4ZM1099.08 39.6L1098.23 40.1333L1099.08 39.6ZM1095.8 36.72L1096.24 35.8222L1096.24 35.8222L1095.8 36.72ZM1079.44 35.68L1078.74 34.9652L1076.99 36.68H1079.44V35.68ZM1083.12 32.08H1084.12V29.7028L1082.42 31.3652L1083.12 32.08ZM1090.24 30C1093.64 30 1096.57 30.6053 1099.05 31.7834L1099.91 29.9766C1097.11 28.648 1093.88 28 1090.24 28V30ZM1099.05 31.7834C1101.54 32.9653 1103.45 34.5955 1104.8 36.6678L1106.48 35.5722C1104.9 33.1645 1102.7 31.3013 1099.91 29.9766L1099.05 31.7834ZM1104.81 36.6747C1106.18 38.7312 1106.88 41.1597 1106.88 44H1108.88C1108.88 40.8137 1108.09 37.9888 1106.47 35.5653L1104.81 36.6747ZM1106.88 44C1106.88 46.8115 1106.18 49.2427 1104.81 51.3298L1106.48 52.4302C1108.09 49.9839 1108.88 47.1618 1108.88 44H1106.88ZM1104.8 51.3322C1103.45 53.4045 1101.54 55.0347 1099.05 56.2166L1099.91 58.0234C1102.7 56.6987 1104.9 54.8355 1106.48 52.4278L1104.8 51.3322ZM1099.05 56.2166C1096.57 57.3947 1093.64 58 1090.24 58V60C1093.88 60 1097.11 59.352 1099.91 58.0234L1099.05 56.2166ZM1090.24 58H1075.6V60H1090.24V58ZM1076.6 59V29H1074.6V59H1076.6ZM1075.6 30H1090.24V28H1075.6V30ZM1083.82 55.2052L1080.14 51.6052L1078.74 53.0348L1082.42 56.6348L1083.82 55.2052ZM1079.44 53.32H1090.8V51.32H1079.44V53.32ZM1090.8 53.32C1092.84 53.32 1094.66 52.9515 1096.24 52.1778L1095.36 50.3822C1094.11 50.9951 1092.6 51.32 1090.8 51.32V53.32ZM1096.24 52.1778C1097.81 51.4101 1099.05 50.33 1099.93 48.9333L1098.23 47.8667C1097.57 48.9233 1096.62 49.7632 1095.36 50.3822L1096.24 52.1778ZM1099.93 48.9251C1100.82 47.4927 1101.24 45.8388 1101.24 44H1099.24C1099.24 45.5212 1098.89 46.8007 1098.23 47.8749L1099.93 48.9251ZM1101.24 44C1101.24 42.1385 1100.82 40.4795 1099.93 39.0667L1098.23 40.1333C1098.89 41.1739 1099.24 42.4482 1099.24 44H1101.24ZM1099.93 39.0667C1099.05 37.67 1097.81 36.5899 1096.24 35.8222L1095.36 37.6178C1096.62 38.2368 1097.57 39.0767 1098.23 40.1333L1099.93 39.0667ZM1096.24 35.8222C1094.66 35.0485 1092.84 34.68 1090.8 34.68V36.68C1092.6 36.68 1094.11 37.0049 1095.36 37.6178L1096.24 35.8222ZM1090.8 34.68H1079.44V36.68H1090.8V34.68ZM1080.14 36.3948L1083.82 32.7948L1082.42 31.3652L1078.74 34.9652L1080.14 36.3948ZM1082.12 32.08V55.92H1084.12V32.08H1082.12ZM1115.88 52.96H1114.88V53.96H1115.88V52.96ZM1115.88 46.88V45.88H1114.88V46.88H1115.88ZM1136.6 46.88H1137.6V45.88H1136.6V46.88ZM1136.6 52.96V53.96H1137.6V52.96H1136.6ZM1131.32 29L1132.23 28.5811L1131.96 28H1131.32V29ZM1145.16 59V60H1146.73L1146.07 58.5811L1145.16 59ZM1137.12 59L1136.21 59.4047L1136.47 60H1137.12V59ZM1125.24 32.16V31.16H1123.71L1124.33 32.5647L1125.24 32.16ZM1127.56 32.16L1128.48 32.5636L1129.1 31.16H1127.56V32.16ZM1115.72 59V60H1116.37L1116.64 59.4036L1115.72 59ZM1107.68 59L1106.78 58.5811L1106.12 60H1107.68V59ZM1121.52 29V28H1120.88L1120.62 28.5811L1121.52 29ZM1116.88 52.96V46.88H1114.88V52.96H1116.88ZM1115.88 47.88H1136.6V45.88H1115.88V47.88ZM1135.6 46.88V52.96H1137.6V46.88H1135.6ZM1136.6 51.96H1115.88V53.96H1136.6V51.96ZM1130.42 29.4189L1144.26 59.4189L1146.07 58.5811L1132.23 28.5811L1130.42 29.4189ZM1145.16 58H1137.12V60H1145.16V58ZM1138.04 58.5953L1126.16 31.7553L1124.33 32.5647L1136.21 59.4047L1138.04 58.5953ZM1125.24 33.16H1127.56V31.16H1125.24V33.16ZM1126.65 31.7564L1114.81 58.5964L1116.64 59.4036L1128.48 32.5636L1126.65 31.7564ZM1115.72 58H1107.68V60H1115.72V58ZM1108.59 59.4189L1122.43 29.4189L1120.62 28.5811L1106.78 58.5811L1108.59 59.4189ZM1121.52 30H1131.32V28H1121.52V30ZM1153.41 59H1152.41V60H1153.41V59ZM1153.41 44.48V43.48H1152.41V44.48H1153.41ZM1160.97 44.48H1161.97V43.48H1160.97V44.48ZM1160.97 59V60H1161.97V59H1160.97ZM1139.33 29V28H1137.27L1138.54 29.6178L1139.33 29ZM1147.69 29L1148.48 28.3818L1148.18 28H1147.69V29ZM1158.89 43.24V44.24H1160.95L1159.68 42.6218L1158.89 43.24ZM1155.41 43.24L1154.62 42.6218L1153.35 44.24H1155.41V43.24ZM1166.61 29V28H1166.12L1165.82 28.3818L1166.61 29ZM1174.97 29L1175.76 29.6184L1177.03 28H1174.97V29ZM1159.61 48.52L1159.63 49.5199L1160.1 49.5121L1160.4 49.1384L1159.61 48.52ZM1154.73 48.6L1153.94 49.2178L1154.25 49.608L1154.75 49.5999L1154.73 48.6ZM1154.41 59V44.48H1152.41V59H1154.41ZM1153.41 45.48H1160.97V43.48H1153.41V45.48ZM1159.97 44.48V59H1161.97V44.48H1159.97ZM1160.97 58H1153.41V60H1160.97V58ZM1139.33 30H1147.69V28H1139.33V30ZM1146.9 29.6182L1158.1 43.8582L1159.68 42.6218L1148.48 28.3818L1146.9 29.6182ZM1158.89 42.24H1155.41V44.24H1158.89V42.24ZM1156.2 43.8582L1167.4 29.6182L1165.82 28.3818L1154.62 42.6218L1156.2 43.8582ZM1166.61 30H1174.97V28H1166.61V30ZM1174.18 28.3816L1158.82 47.9016L1160.4 49.1384L1175.76 29.6184L1174.18 28.3816ZM1159.59 47.5201L1154.71 47.6001L1154.75 49.5999L1159.63 49.5199L1159.59 47.5201ZM1155.52 47.9822L1140.12 28.3822L1138.54 29.6178L1153.94 49.2178L1155.52 47.9822Z" fill="#FFEB1C" mask="url(#path-8-outside-4_2204_195)"/>
<path d="M1221.58 29.5307L1227.72 47.2924M1227.72 47.2924L1227.27 64.7076M1227.72 47.2924L1208.03 60.722M1227.72 47.2924L1246.89 48.5054M1227.72 47.2924L1238.37 20M1227.72 47.2924L1254.06 61.5018M1227.72 47.2924L1217.28 65.9206M1227.72 47.2924L1208.99 30.7437M1227.72 47.2924L1245.7 34.4693M1227.72 47.2924L1211.51 45.8195M1227.72 47.2924L1238.37 68" stroke="#8F8FFF" stroke-width="2.4"/>
</svg>
